<svg width="15" height="17" viewBox="0 0 15 17" fill="none" xmlns="http://www.w3.org/2000/svg">
<path d="M15 16.0925C15 16.3332 14.9122 16.564 14.7559 16.7342C14.5996 16.9044 14.3877 17 14.1667 17H0.833333C0.61232 17 0.400358 16.9044 0.244078 16.7342C0.0877975 16.564 2.00592e-07 16.3332 2.00592e-07 16.0925V6.55518C-8.7903e-05 6.4169 0.0288476 6.28042 0.0845967 6.15617C0.140346 6.03193 0.221433 5.9232 0.321667 5.83829L6.98833 0.191196C7.13462 0.0672783 7.31467 0 7.5 0C7.68533 0 7.86538 0.0672783 8.01167 0.191196L14.6783 5.83829C14.7786 5.9232 14.8597 6.03193 14.9154 6.15617C14.9712 6.28042 15.0001 6.4169 15 6.55518V16.0925ZM13.3333 15.1851V6.99802L7.5 2.05783L1.66667 6.99802V15.1851H13.3333Z" fill="#36AEE2"/>
</svg>
