<svg width="10" height="10" viewBox="0 0 10 10" fill="none" xmlns="http://www.w3.org/2000/svg">
<path d="M1.01377 0.993062C0.737145 1.26969 0.737155 1.71818 1.01377 1.9948L4.01898 5L1.01377 8.0052C0.737155 8.28182 0.737145 8.73031 1.01377 9.00694C1.2904 9.28357 1.73889 9.28356 2.01551 9.00694L5.02071 6.00173L8.02592 9.00694C8.30255 9.28357 8.75102 9.28357 9.02765 9.00694C9.30428 8.73031 9.30428 8.28183 9.02765 8.0052L6.02245 5L9.02765 1.9948C9.30428 1.71817 9.30428 1.26969 9.02765 0.993062C8.75102 0.716433 8.30255 0.716432 8.02592 0.993061L5.02071 3.99827L2.01551 0.993062C1.73889 0.716443 1.2904 0.716433 1.01377 0.993062Z" fill="#585858"/>
</svg>
