<svg width="18" height="21" viewBox="0 0 18 21" fill="none" xmlns="http://www.w3.org/2000/svg">
<path d="M2.58333 3.66602C1.57078 3.66602 0.75 4.49102 0.75 5.49935V18.3327C0.75 19.341 1.57078 20.166 2.58333 20.166H8.08333H9.91667H15.4167C16.4296 20.166 17.25 19.341 17.25 18.3327V5.49935C17.25 4.49102 16.4296 3.66602 15.4167 3.66602H9.91667H8.08333H2.58333Z" fill="#BDC3C7"/>
<path d="M2.58333 2.75C1.57078 2.75 0.75 3.57078 0.75 4.58333V17.4167C0.75 18.4296 1.57078 19.25 2.58333 19.25H8.08333H9.91667H15.4167C16.4296 19.25 17.25 18.4296 17.25 17.4167V4.58333C17.25 3.57078 16.4296 2.75 15.4167 2.75H9.91667H8.08333H2.58333Z" fill="#ECF0F1"/>
<path d="M2.58333 2.75C1.57078 2.75 0.75 3.575 0.75 4.58333V7.33333H17.25V4.58333C17.25 3.575 16.4296 2.75 15.4167 2.75H9.91667H8.08333H2.58333Z" fill="#E74C3C"/>
<path d="M4.875 5.04102C4.875 5.22158 4.83943 5.40038 4.77033 5.56721C4.70123 5.73403 4.59995 5.88561 4.47227 6.01329C4.34459 6.14097 4.19301 6.24225 4.02619 6.31135C3.85937 6.38045 3.68057 6.41602 3.5 6.41602C3.31943 6.41602 3.14063 6.38045 2.97381 6.31135C2.80699 6.24225 2.65541 6.14097 2.52773 6.01329C2.40005 5.88561 2.29877 5.73403 2.22967 5.56721C2.16057 5.40038 2.125 5.22158 2.125 5.04102C2.125 4.86045 2.16057 4.68165 2.22967 4.51483C2.29877 4.348 2.40005 4.19642 2.52773 4.06874C2.65541 3.94106 2.80699 3.83978 2.97381 3.77068C3.14063 3.70158 3.31943 3.66602 3.5 3.66602C3.68057 3.66602 3.85937 3.70158 4.02619 3.77068C4.19301 3.83978 4.34459 3.94106 4.47227 4.06874C4.59995 4.19642 4.70123 4.348 4.77033 4.51483C4.83943 4.68165 4.875 4.86045 4.875 5.04102Z" fill="#C0392B"/>
<path d="M3.4987 0.916016C2.99242 0.916016 2.58203 1.32641 2.58203 1.83268V4.58268C2.58203 5.08896 2.99242 5.49935 3.4987 5.49935C4.00497 5.49935 4.41536 5.08896 4.41536 4.58268V1.83268C4.41536 1.32641 4.00497 0.916016 3.4987 0.916016Z" fill="#BDC3C7"/>
<path d="M15.875 5.04102C15.875 5.22158 15.8394 5.40038 15.7703 5.56721C15.7012 5.73403 15.6 5.88561 15.4723 6.01329C15.3446 6.14097 15.193 6.24225 15.0262 6.31135C14.8594 6.38045 14.6806 6.41602 14.5 6.41602C14.3194 6.41602 14.1406 6.38045 13.9738 6.31135C13.807 6.24225 13.6554 6.14097 13.5277 6.01329C13.4 5.88561 13.2988 5.73403 13.2297 5.56721C13.1606 5.40038 13.125 5.22158 13.125 5.04102C13.125 4.86045 13.1606 4.68165 13.2297 4.51483C13.2988 4.348 13.4 4.19642 13.5277 4.06874C13.6554 3.94106 13.807 3.83978 13.9738 3.77068C14.1406 3.70158 14.3194 3.66602 14.5 3.66602C14.6806 3.66602 14.8594 3.70158 15.0262 3.77068C15.193 3.83978 15.3446 3.94106 15.4723 4.06874C15.6 4.19642 15.7012 4.348 15.7703 4.51483C15.8394 4.68165 15.875 4.86045 15.875 5.04102Z" fill="#C0392B"/>
<path d="M14.4987 0.916016C13.9927 0.916016 13.582 1.28268 13.582 1.83268V4.58268C13.582 5.04102 13.9927 5.49935 14.4987 5.49935C15.0047 5.49935 15.4154 5.04102 15.4154 4.58268V1.83268C15.4154 1.28268 15.0047 0.916016 14.4987 0.916016Z" fill="#BDC3C7"/>
<path d="M17.25 7.33203H0.75V8.2487H17.25V7.33203Z" fill="#C0392B"/>
<path d="M5.33203 10.082V10.9987H7.16536C7.67136 10.9987 8.08203 11.3654 8.08203 11.9154C8.08203 12.3737 7.67136 12.832 7.16536 12.832H6.2487V13.7487H7.16536C7.67136 13.7487 8.08203 14.1154 8.08203 14.6654C8.08203 15.1237 7.67136 15.582 7.16536 15.582H5.33203V16.4987H7.16536C8.17828 16.4987 8.9987 15.6737 8.9987 14.6654C8.9987 14.1154 8.75303 13.5654 8.36803 13.2904C8.75303 12.9237 8.9987 12.4654 8.9987 11.9154C8.9987 10.907 8.17828 10.082 7.16536 10.082H5.33203Z" fill="#95A5A6"/>
<path d="M9.91797 10.082V10.9987H10.8346V15.582H9.91797V16.4987H10.8346H11.7513H12.668V15.582H11.7513V10.082H10.8346H9.91797Z" fill="#95A5A6"/>
</svg>
