<svg width="12" height="12" viewBox="0 0 12 12" fill="none" xmlns="http://www.w3.org/2000/svg">
<g clip-path="url(#clip0_382_15288)">
<path d="M11 2H8V1.5C8 1.10218 7.84196 0.720644 7.56066 0.43934C7.27936 0.158035 6.89782 0 6.5 0L5.5 0C5.10218 0 4.72064 0.158035 4.43934 0.43934C4.15804 0.720644 4 1.10218 4 1.5V2H1C0.867392 2 0.740215 2.05268 0.646447 2.14645C0.552678 2.24021 0.5 2.36739 0.5 2.5C0.5 2.63261 0.552678 2.75979 0.646447 2.85355C0.740215 2.94732 0.867392 3 1 3H2V10C2 10.3978 2.15804 10.7794 2.43934 11.0607C2.72064 11.342 3.10218 11.5 3.5 11.5H8.5C8.89782 11.5 9.27936 11.342 9.56066 11.0607C9.84196 10.7794 10 10.3978 10 10V3H11C11.1326 3 11.2598 2.94732 11.3536 2.85355C11.4473 2.75979 11.5 2.63261 11.5 2.5C11.5 2.36739 11.4473 2.24021 11.3536 2.14645C11.2598 2.05268 11.1326 2 11 2ZM5 1.5C5 1.36739 5.05268 1.24021 5.14645 1.14645C5.24021 1.05268 5.36739 1 5.5 1H6.5C6.63261 1 6.75979 1.05268 6.85355 1.14645C6.94732 1.24021 7 1.36739 7 1.5V2H5V1.5ZM4.5 9C4.5 9.13261 4.44732 9.25979 4.35355 9.35355C4.25979 9.44732 4.13261 9.5 4 9.5C3.86739 9.5 3.74021 9.44732 3.64645 9.35355C3.55268 9.25979 3.5 9.13261 3.5 9V5C3.5 4.86739 3.55268 4.74021 3.64645 4.64645C3.74021 4.55268 3.86739 4.5 4 4.5C4.13261 4.5 4.25979 4.55268 4.35355 4.64645C4.44732 4.74021 4.5 4.86739 4.5 5V9ZM6.5 9C6.5 9.13261 6.44732 9.25979 6.35355 9.35355C6.25979 9.44732 6.13261 9.5 6 9.5C5.86739 9.5 5.74021 9.44732 5.64645 9.35355C5.55268 9.25979 5.5 9.13261 5.5 9V5C5.5 4.86739 5.55268 4.74021 5.64645 4.64645C5.74021 4.55268 5.86739 4.5 6 4.5C6.13261 4.5 6.25979 4.55268 6.35355 4.64645C6.44732 4.74021 6.5 4.86739 6.5 5V9ZM8.5 9C8.5 9.13261 8.44732 9.25979 8.35355 9.35355C8.25979 9.44732 8.13261 9.5 8 9.5C7.86739 9.5 7.74021 9.44732 7.64645 9.35355C7.55268 9.25979 7.5 9.13261 7.5 9V5C7.5 4.86739 7.55268 4.74021 7.64645 4.64645C7.74021 4.55268 7.86739 4.5 8 4.5C8.13261 4.5 8.25979 4.55268 8.35355 4.64645C8.44732 4.74021 8.5 4.86739 8.5 5V9Z" fill="#EC4E39"/>
</g>
<defs>
<clipPath id="clip0_382_15288">
<rect width="12" height="12" fill="white"/>
</clipPath>
</defs>
</svg>
