<svg width="9" height="11" viewBox="0 0 9 11" fill="none" xmlns="http://www.w3.org/2000/svg">
<path d="M8.75893 3.4375H0.241071C0.10794 3.4375 0 3.32206 0 3.17969V2.40625C0 1.8367 0.431719 1.375 0.964286 1.375H1.92857V0.257812C1.92857 0.115436 2.03651 0 2.16964 0H2.97321C3.10635 0 3.21429 0.115436 3.21429 0.257812V1.375H5.78571V0.257812C5.78571 0.115436 5.89365 0 6.02679 0H6.83036C6.96349 0 7.07143 0.115436 7.07143 0.257812V1.375H8.03571C8.56828 1.375 9 1.8367 9 2.40625V3.17969C9 3.32206 8.89206 3.4375 8.75893 3.4375ZM0.241071 4.125H8.75893C8.89206 4.125 9 4.24044 9 4.38281V9.96875C9 10.5383 8.56828 11 8.03571 11H0.964286C0.431719 11 0 10.5383 0 9.96875V4.38281C0 4.24044 0.10794 4.125 0.241071 4.125ZM6.93675 6.18636L6.37086 5.57625C6.2771 5.47516 6.12446 5.4745 6.02994 5.57479L3.89973 7.8346L2.97603 6.83876C2.88227 6.73767 2.72961 6.73701 2.63509 6.83729L2.06462 7.44251C1.9701 7.54278 1.96947 7.70602 2.06325 7.8071L3.72264 9.59608C3.8164 9.69717 3.96904 9.69783 4.06356 9.59754L6.93538 6.55095C7.0299 6.45068 7.03053 6.28745 6.93675 6.18636Z" fill="#333333"/>
</svg>
