<svg width="151" height="135" viewBox="0 0 151 135" fill="none" xmlns="http://www.w3.org/2000/svg">
<g filter="url(#filter0_d_1006_7537)">
<rect x="20" y="16" width="111" height="95" rx="10" fill="white"/>
<rect x="20.5" y="16.5" width="110" height="94" rx="9.5" stroke="#A7A7A7" stroke-opacity="0.1"/>
</g>
<path d="M60.1406 83.4961V88.8398H59.0273V87.832H56.3672V86.9648H59.0273V85.8281H56.4961C55.8457 87.457 54.2637 88.5293 51.9375 89.0742L51.5508 88.1602C54.0703 87.6035 55.4355 86.4375 55.6172 84.8906H52.1016V83.9766H56.8359C56.8359 84.3164 56.8066 84.6387 56.7539 84.9492H59.0273V83.4961H60.1406ZM60.1406 89.2852V91.9453H54.3984V93H60.457V93.8906H53.2969V91.1016H59.0273V90.1641H53.2734V89.2852H60.1406ZM71.0095 83.4961V93.9961H69.9431V83.4961H71.0095ZM68.8767 83.7188V93.4688H67.822V88.125H66.1931V87.2109H67.822V83.7188H68.8767ZM65.1619 86.4258C65.1619 88.2188 65.8884 90.0117 67.365 90.8672L66.697 91.6875C65.6951 91.0898 65.0037 90.0293 64.6462 88.7578C64.2654 90.1289 63.5505 91.2949 62.5252 91.9336L61.8455 91.1016C63.3337 90.1992 64.0955 88.2891 64.0955 86.4258V85.582H62.1619V84.6797H66.9666V85.582H65.1619V86.4258ZM79.8333 85.5234C79.8333 86.5195 80.7708 87.375 82.3059 87.7031L81.8489 88.5703C80.6419 88.3008 79.7571 87.6973 79.2942 86.8945C78.843 87.7676 77.9407 88.4238 76.6927 88.7109L76.2239 87.8438C77.7708 87.5156 78.72 86.5664 78.72 85.5234H76.4583V84.6445H78.72V83.5195H79.8333V84.6445H82.0833V85.5234H79.8333ZM84.5091 83.5078V93.9961H83.4075V83.5078H84.5091ZM75.7669 89.3555C77.7591 89.3555 80.3958 89.3438 82.6809 89.0508L82.763 89.8594C81.802 90.0176 80.8118 90.1172 79.845 90.1758V93.6797H78.7317V90.2344C77.7239 90.2754 76.763 90.2812 75.9192 90.2812L75.7669 89.3555ZM95.9991 91.7461V92.6602H86.3897V91.7461H90.5967V89.25H91.6983V91.7461H95.9991ZM91.7217 84.9609C91.7217 86.625 93.5498 88.1836 95.5772 88.5234L95.0967 89.4375C93.3975 89.0977 91.833 88.0488 91.1358 86.6016C90.4444 88.043 88.8975 89.1094 87.21 89.4375L86.7178 88.5234C88.7334 88.1836 90.5498 86.625 90.5498 84.9609V84.1641H91.7217V84.9609Z" fill="#EC4E39"/>
<g clip-path="url(#clip0_1006_7537)">
<path d="M44 85H41V84.5C41 84.1022 40.842 83.7206 40.5607 83.4393C40.2794 83.158 39.8978 83 39.5 83H38.5C38.1022 83 37.7206 83.158 37.4393 83.4393C37.158 83.7206 37 84.1022 37 84.5V85H34C33.8674 85 33.7402 85.0527 33.6464 85.1464C33.5527 85.2402 33.5 85.3674 33.5 85.5C33.5 85.6326 33.5527 85.7598 33.6464 85.8536C33.7402 85.9473 33.8674 86 34 86H35V93C35 93.3978 35.158 93.7794 35.4393 94.0607C35.7206 94.342 36.1022 94.5 36.5 94.5H41.5C41.8978 94.5 42.2794 94.342 42.5607 94.0607C42.842 93.7794 43 93.3978 43 93V86H44C44.1326 86 44.2598 85.9473 44.3536 85.8536C44.4473 85.7598 44.5 85.6326 44.5 85.5C44.5 85.3674 44.4473 85.2402 44.3536 85.1464C44.2598 85.0527 44.1326 85 44 85ZM38 84.5C38 84.3674 38.0527 84.2402 38.1464 84.1464C38.2402 84.0527 38.3674 84 38.5 84H39.5C39.6326 84 39.7598 84.0527 39.8536 84.1464C39.9473 84.2402 40 84.3674 40 84.5V85H38V84.5ZM37.5 92C37.5 92.1326 37.4473 92.2598 37.3536 92.3536C37.2598 92.4473 37.1326 92.5 37 92.5C36.8674 92.5 36.7402 92.4473 36.6464 92.3536C36.5527 92.2598 36.5 92.1326 36.5 92V88C36.5 87.8674 36.5527 87.7402 36.6464 87.6464C36.7402 87.5527 36.8674 87.5 37 87.5C37.1326 87.5 37.2598 87.5527 37.3536 87.6464C37.4473 87.7402 37.5 87.8674 37.5 88V92ZM39.5 92C39.5 92.1326 39.4473 92.2598 39.3536 92.3536C39.2598 92.4473 39.1326 92.5 39 92.5C38.8674 92.5 38.7402 92.4473 38.6464 92.3536C38.5527 92.2598 38.5 92.1326 38.5 92V88C38.5 87.8674 38.5527 87.7402 38.6464 87.6464C38.7402 87.5527 38.8674 87.5 39 87.5C39.1326 87.5 39.2598 87.5527 39.3536 87.6464C39.4473 87.7402 39.5 87.8674 39.5 88V92ZM41.5 92C41.5 92.1326 41.4473 92.2598 41.3536 92.3536C41.2598 92.4473 41.1326 92.5 41 92.5C40.8674 92.5 40.7402 92.4473 40.6464 92.3536C40.5527 92.2598 40.5 92.1326 40.5 92V88C40.5 87.8674 40.5527 87.7402 40.6464 87.6464C40.7402 87.5527 40.8674 87.5 41 87.5C41.1326 87.5 41.2598 87.5527 41.3536 87.6464C41.4473 87.7402 41.5 87.8674 41.5 88V92Z" fill="#EC4E39"/>
</g>
<path d="M56.7188 62.6406H60.9609V63.543H51.3867V62.6406H55.6172V61.1758H56.7188V62.6406ZM56.7305 58.1055C56.7305 58.543 56.8945 58.957 57.2227 59.3477C57.5508 59.7383 57.9941 60.0684 58.5527 60.3379C59.1113 60.6074 59.7266 60.7852 60.3984 60.8711L59.9648 61.75C59.1172 61.6172 58.3516 61.3535 57.668 60.959C56.9883 60.5645 56.4863 60.084 56.1621 59.5176C55.834 60.0879 55.3281 60.5703 54.6445 60.9648C53.9648 61.3555 53.1992 61.6172 52.3477 61.75L51.9375 60.8711C52.6016 60.7852 53.2129 60.6074 53.7715 60.3379C54.334 60.0684 54.7793 59.7383 55.1074 59.3477C55.4355 58.9531 55.6016 58.5391 55.6055 58.1055V57.6602H56.7305V58.1055ZM56.168 64.3164C56.9258 64.3164 57.5742 64.3887 58.1133 64.5332C58.6562 64.6738 59.0703 64.8828 59.3555 65.1602C59.6445 65.4336 59.7891 65.7656 59.7891 66.1562C59.7891 66.543 59.6445 66.873 59.3555 67.1465C59.0703 67.4199 58.6562 67.627 58.1133 67.7676C57.5703 67.9082 56.9219 67.9766 56.168 67.9727C55.4062 67.9766 54.752 67.9082 54.2051 67.7676C53.6621 67.627 53.2461 67.4199 52.957 67.1465C52.668 66.873 52.5234 66.543 52.5234 66.1562C52.5234 65.7656 52.668 65.4336 52.957 65.1602C53.2461 64.8828 53.6621 64.6738 54.2051 64.5332C54.752 64.3887 55.4062 64.3164 56.168 64.3164ZM56.168 65.1719C55.3555 65.1719 54.7324 65.2559 54.2988 65.4238C53.8652 65.5918 53.6484 65.8359 53.6484 66.1562C53.6484 66.4727 53.8652 66.7148 54.2988 66.8828C54.7324 67.0469 55.3555 67.1289 56.168 67.1289C56.9688 67.1289 57.5859 67.0469 58.0195 66.8828C58.457 66.7148 58.6758 66.4727 58.6758 66.1562C58.6758 65.8359 58.459 65.5918 58.0254 65.4238C57.5918 65.2559 56.9727 65.1719 56.168 65.1719ZM70.3884 58.8203C70.3884 59.3906 70.3728 59.8984 70.3416 60.3438C70.3142 60.7891 70.24 61.293 70.1189 61.8555H71.6072V62.7695H61.9978V61.8555H68.9939C69.1189 61.3086 69.199 60.8164 69.2341 60.3789C69.2693 59.9414 69.2869 59.4609 69.2869 58.9375H63.2048V58.0234H70.3884V58.8203ZM70.4002 67.8672H63.1697V64.1055H70.4002V67.8672ZM64.2595 66.9648H69.2986V64.9844H64.2595V66.9648ZM75.5855 57.8477C76.1089 57.8516 76.5777 57.9551 76.9917 58.1582C77.4097 58.3574 77.7378 58.6367 77.9761 58.9961C78.2144 59.3516 78.3355 59.7539 78.3394 60.2031C78.3355 60.6562 78.2144 61.0605 77.9761 61.416C77.7378 61.7715 77.4097 62.0488 76.9917 62.248C76.5777 62.4473 76.1089 62.5469 75.5855 62.5469C75.0581 62.5469 74.5835 62.4473 74.1616 62.248C73.7437 62.0488 73.4155 61.7715 73.1773 61.416C72.939 61.0605 72.8198 60.6562 72.8198 60.2031C72.8198 59.7539 72.939 59.3516 73.1773 58.9961C73.4155 58.6367 73.7437 58.3574 74.1616 58.1582C74.5835 57.9551 75.0581 57.8516 75.5855 57.8477ZM75.5855 58.7852C75.2652 58.7812 74.9761 58.8379 74.7183 58.9551C74.4644 59.0723 74.2652 59.2402 74.1206 59.459C73.9761 59.6738 73.9058 59.9219 73.9097 60.2031C73.9058 60.4883 73.9741 60.7402 74.1148 60.959C74.2593 61.1777 74.4585 61.3477 74.7124 61.4688C74.9702 61.5859 75.2612 61.6445 75.5855 61.6445C75.9058 61.6445 76.1929 61.584 76.4468 61.4629C76.7007 61.3418 76.8999 61.1738 77.0445 60.959C77.189 60.7402 77.2612 60.4883 77.2612 60.2031C77.2612 59.9219 77.189 59.6738 77.0445 59.459C76.8999 59.2402 76.6987 59.0723 76.4409 58.9551C76.187 58.8379 75.9019 58.7812 75.5855 58.7852ZM81.3159 62.8398H80.2027V57.4961H81.3159V62.8398ZM81.3159 65.9688H75.5269V66.9766H81.6675V67.8672H74.4487V65.1367H80.2144V64.2109H74.4136V63.3203H81.3159V65.9688ZM95.1436 65.2656H94.0303V62.5352H91.7334V63.5195H86.8936V58.1992H88.0069V59.9805H90.6319V58.1992H91.7334V59.3711H94.0303V57.5078H95.1436V65.2656ZM95.378 67.7734H88.2881V64.5039H89.4131V66.8711H95.378V67.7734ZM90.6319 62.6172V60.8359H88.0069V62.6172H90.6319ZM94.0303 61.6328V60.2852H91.7334V61.6328H94.0303ZM105.755 63.7188H104.641V62.4414H101.993V61.5273H104.641V60.25H102.098C101.763 61.0859 101.212 61.8008 100.446 62.3945C99.6805 62.9883 98.7234 63.4492 97.575 63.7773L97.1297 62.9102C98.368 62.5547 99.3406 62.0547 100.048 61.4102C100.759 60.7656 101.165 60.0195 101.266 59.1719H97.6688V58.2578H102.473C102.473 58.6289 102.436 59 102.362 59.3711H104.641V57.5078H105.755V63.7188ZM102.298 63.8359C103.001 63.8359 103.618 63.918 104.149 64.082C104.68 64.2461 105.091 64.4824 105.38 64.791C105.673 65.0996 105.821 65.4648 105.825 65.8867C105.821 66.3086 105.673 66.6758 105.38 66.9883C105.091 67.2969 104.68 67.5332 104.149 67.6973C103.618 67.8652 103.001 67.9492 102.298 67.9492C101.583 67.9492 100.958 67.8652 100.423 67.6973C99.8914 67.5332 99.4813 67.2969 99.1922 66.9883C98.9031 66.6758 98.7586 66.3086 98.7586 65.8867C98.7586 65.4648 98.9031 65.0996 99.1922 64.791C99.4813 64.4824 99.8914 64.2461 100.423 64.082C100.958 63.918 101.583 63.8359 102.298 63.8359ZM102.298 64.7148C101.798 64.7148 101.364 64.7617 100.997 64.8555C100.634 64.9453 100.352 65.0781 100.153 65.2539C99.9578 65.4297 99.8602 65.6406 99.8602 65.8867C99.8602 66.1289 99.9578 66.3379 100.153 66.5137C100.352 66.6895 100.634 66.8242 100.997 66.918C101.364 67.0117 101.798 67.0586 102.298 67.0586C102.79 67.0586 103.216 67.0117 103.575 66.918C103.938 66.8242 104.218 66.6895 104.413 66.5137C104.608 66.3379 104.708 66.1289 104.712 65.8867C104.708 65.5156 104.491 65.2285 104.061 65.0254C103.632 64.8184 103.044 64.7148 102.298 64.7148Z" fill="#333333"/>
<path d="M41.7589 61.4375H33.2411C33.1079 61.4375 33 61.3221 33 61.1797V60.4062C33 59.8367 33.4317 59.375 33.9643 59.375H34.9286V58.2578C34.9286 58.1154 35.0365 58 35.1696 58H35.9732C36.1063 58 36.2143 58.1154 36.2143 58.2578V59.375H38.7857V58.2578C38.7857 58.1154 38.8937 58 39.0268 58H39.8304C39.9635 58 40.0714 58.1154 40.0714 58.2578V59.375H41.0357C41.5683 59.375 42 59.8367 42 60.4062V61.1797C42 61.3221 41.8921 61.4375 41.7589 61.4375ZM33.2411 62.125H41.7589C41.8921 62.125 42 62.2404 42 62.3828V67.9688C42 68.5383 41.5683 69 41.0357 69H33.9643C33.4317 69 33 68.5383 33 67.9688V62.3828C33 62.2404 33.1079 62.125 33.2411 62.125ZM39.9367 64.1864L39.3709 63.5762C39.2771 63.4752 39.1245 63.4745 39.0299 63.5748L36.8997 65.8346L35.976 64.8388C35.8823 64.7377 35.7296 64.737 35.6351 64.8373L35.0646 65.4425C34.9701 65.5428 34.9695 65.706 35.0633 65.8071L36.7226 67.5961C36.8164 67.6972 36.969 67.6978 37.0636 67.5975L39.9354 64.551C40.0299 64.4507 40.0305 64.2874 39.9367 64.1864Z" fill="#333333"/>
<path d="M60.1406 36.8398H59.0273V35.832H56.3672V34.9648H59.0273V33.8281H56.4961C56.1758 34.6328 55.6289 35.3066 54.8555 35.8496C54.0859 36.3887 53.1133 36.7969 51.9375 37.0742L51.5508 36.1602C52.7969 35.8867 53.7617 35.4688 54.4453 34.9062C55.1328 34.3438 55.5215 33.6719 55.6113 32.8906H52.1016V31.9766H56.8359C56.8359 32.3125 56.8066 32.6367 56.748 32.9492H59.0273V31.4961H60.1406V36.8398ZM60.1406 39.9453H54.3984V41H60.457V41.8906H53.2969V39.1016H59.0273V38.1641H53.2734V37.2852H60.1406V39.9453ZM71.0095 41.9961H69.9431V31.4961H71.0095V41.9961ZM68.8767 41.4688H67.822V36.125H66.1931V35.2109H67.822V31.7188H68.8767V41.4688ZM65.1619 34.4258C65.1619 35.0352 65.2439 35.627 65.408 36.2012C65.5759 36.7715 65.824 37.2891 66.1521 37.7539C66.4841 38.2188 66.8884 38.5898 67.365 38.8672L66.697 39.6875C66.2087 39.3945 65.7908 38.9961 65.4431 38.4922C65.0955 37.9883 64.8279 37.4121 64.6404 36.7637C64.449 37.4668 64.1736 38.0938 63.8142 38.6445C63.4548 39.1914 63.0252 39.6211 62.5252 39.9336L61.8455 39.1016C62.3259 38.8086 62.7341 38.416 63.0701 37.9238C63.4099 37.4316 63.6658 36.8848 63.8377 36.2832C64.0095 35.6777 64.0955 35.0586 64.0955 34.4258V33.582H62.1619V32.6797H66.9666V33.582H65.1619V34.4258ZM81.3628 37.7422H80.2495V35.082H78.2925V34.168H80.2495V31.4961H81.3628V37.7422ZM77.8472 38.0352C78.5777 38.0352 79.2085 38.1133 79.7398 38.2695C80.2749 38.4258 80.6851 38.6523 80.9702 38.9492C81.2554 39.2461 81.398 39.6016 81.398 40.0156C81.398 40.4297 81.2554 40.7832 80.9702 41.0762C80.6851 41.373 80.2769 41.5996 79.7456 41.7559C79.2144 41.9121 78.5816 41.9922 77.8472 41.9961C77.1128 41.9922 76.478 41.9121 75.9429 41.7559C75.4116 41.5996 75.0034 41.373 74.7183 41.0762C74.4331 40.7832 74.2925 40.4297 74.2964 40.0156C74.2925 39.6016 74.4331 39.2461 74.7183 38.9492C75.0034 38.6523 75.4116 38.4258 75.9429 38.2695C76.478 38.1133 77.1128 38.0352 77.8472 38.0352ZM77.8472 38.9023C77.0737 38.9023 76.4722 39 76.0425 39.1953C75.6128 39.3867 75.398 39.6602 75.398 40.0156C75.398 40.25 75.4956 40.4512 75.6909 40.6191C75.8862 40.7832 76.1675 40.9082 76.5347 40.9941C76.9019 41.0801 77.3394 41.1211 77.8472 41.1172C78.355 41.1211 78.7925 41.0801 79.1597 40.9941C79.5269 40.9082 79.8081 40.7832 80.0034 40.6191C80.1987 40.4512 80.2964 40.25 80.2964 40.0156C80.2964 39.6602 80.0816 39.3867 79.6519 39.1953C79.2222 39 78.6206 38.9023 77.8472 38.9023ZM76.3706 33.3477C76.3706 33.793 76.4722 34.2246 76.6753 34.6426C76.8784 35.0605 77.1714 35.4336 77.5542 35.7617C77.937 36.0859 78.3862 36.3359 78.9019 36.5117L78.3277 37.3906C77.7495 37.1875 77.2456 36.8887 76.8159 36.4941C76.3902 36.0957 76.0601 35.6328 75.8257 35.1055C75.5952 35.7031 75.2534 36.2266 74.8003 36.6758C74.3472 37.1211 73.812 37.457 73.1948 37.6836L72.6089 36.793C73.1402 36.6094 73.603 36.3418 73.9976 35.9902C74.396 35.6348 74.7007 35.2285 74.9116 34.7715C75.1265 34.3145 75.2339 33.8438 75.2339 33.3594V33.125H72.9605V32.2227H78.6206V33.125H76.3706V33.3477ZM92.8294 40.6953H83.22V39.7695H87.4505V37.6133H84.3216V32.2109H85.4348V34.0156H90.5911V32.2109H91.6927V37.6133H88.552V39.7695H92.8294V40.6953ZM90.5911 36.7109V34.918H85.4348V36.7109H90.5911ZM102.38 32.4219C102.376 32.8789 102.542 33.3203 102.878 33.7461C103.218 34.168 103.677 34.5273 104.255 34.8242C104.833 35.1172 105.462 35.3086 106.141 35.3984L105.708 36.3125C105.138 36.2227 104.596 36.0664 104.085 35.8438C103.573 35.6211 103.12 35.3457 102.725 35.0176C102.331 34.6895 102.022 34.3223 101.8 33.916C101.573 34.3223 101.263 34.6895 100.868 35.0176C100.477 35.3457 100.028 35.6211 99.5203 35.8438C99.0125 36.0625 98.4734 36.2188 97.9031 36.3125L97.4578 35.3984C98.1375 35.3086 98.7645 35.1172 99.3387 34.8242C99.9129 34.5312 100.368 34.1738 100.704 33.752C101.044 33.3262 101.216 32.8828 101.22 32.4219V31.8477H102.38V32.4219ZM106.575 38.2578H102.309V41.9961H101.22V38.2578H97.0008V37.3438H106.575V38.2578ZM116.366 37.7422H115.252V35.082H113.295V34.168H115.252V31.4961H116.366V37.7422ZM112.85 38.0352C113.581 38.0352 114.211 38.1133 114.743 38.2695C115.278 38.4258 115.688 38.6523 115.973 38.9492C116.258 39.2461 116.401 39.6016 116.401 40.0156C116.401 40.4297 116.258 40.7832 115.973 41.0762C115.688 41.373 115.28 41.5996 114.749 41.7559C114.217 41.9121 113.585 41.9922 112.85 41.9961C112.116 41.9922 111.481 41.9121 110.946 41.7559C110.415 41.5996 110.006 41.373 109.721 41.0762C109.436 40.7832 109.295 40.4297 109.299 40.0156C109.295 39.6016 109.436 39.2461 109.721 38.9492C110.006 38.6523 110.415 38.4258 110.946 38.2695C111.481 38.1133 112.116 38.0352 112.85 38.0352ZM112.85 38.9023C112.077 38.9023 111.475 39 111.045 39.1953C110.616 39.3867 110.401 39.6602 110.401 40.0156C110.401 40.25 110.499 40.4512 110.694 40.6191C110.889 40.7832 111.17 40.9082 111.538 40.9941C111.905 41.0801 112.342 41.1211 112.85 41.1172C113.358 41.1211 113.795 41.0801 114.163 40.9941C114.53 40.9082 114.811 40.7832 115.006 40.6191C115.202 40.4512 115.299 40.25 115.299 40.0156C115.299 39.6602 115.085 39.3867 114.655 39.1953C114.225 39 113.624 38.9023 112.85 38.9023ZM111.374 33.3477C111.374 33.793 111.475 34.2246 111.678 34.6426C111.881 35.0605 112.174 35.4336 112.557 35.7617C112.94 36.0859 113.389 36.3359 113.905 36.5117L113.331 37.3906C112.752 37.1875 112.249 36.8887 111.819 36.4941C111.393 36.0957 111.063 35.6328 110.829 35.1055C110.598 35.7031 110.256 36.2266 109.803 36.6758C109.35 37.1211 108.815 37.457 108.198 37.6836L107.612 36.793C108.143 36.6094 108.606 36.3418 109.001 35.9902C109.399 35.6348 109.704 35.2285 109.915 34.7715C110.129 34.3145 110.237 33.8438 110.237 33.3594V33.125H107.963V32.2227H113.624V33.125H111.374V33.3477Z" fill="#333333"/>
<path d="M40 34.9999L41.1465 33.8535C41.3417 33.6582 41.6583 33.6582 41.8535 33.8535L43.1465 35.1464C43.3417 35.3416 43.3417 35.6582 43.1465 35.8535L42 36.9999M40 34.9999L35.1464 39.8535C35.0527 39.9472 35 40.0744 35 40.207V41.4999C35 41.7761 35.2239 41.9999 35.5 41.9999H36.7929C36.9255 41.9999 37.0527 41.9472 37.1464 41.8535L42 36.9999M40 34.9999L42 36.9999" stroke="#333333" stroke-width="1.5" stroke-linecap="round" stroke-linejoin="round"/>
<rect x="31.5" y="23.5" width="88" height="28" stroke="#EC4E39" stroke-width="3"/>
<defs>
<filter id="filter0_d_1006_7537" x="0" y="0" width="151" height="135" filterUnits="userSpaceOnUse" color-interpolation-filters="sRGB">
<feFlood flood-opacity="0" result="BackgroundImageFix"/>
<feColorMatrix in="SourceAlpha" type="matrix" values="0 0 0 0 0 0 0 0 0 0 0 0 0 0 0 0 0 0 127 0" result="hardAlpha"/>
<feOffset dy="4"/>
<feGaussianBlur stdDeviation="10"/>
<feComposite in2="hardAlpha" operator="out"/>
<feColorMatrix type="matrix" values="0 0 0 0 0 0 0 0 0 0 0 0 0 0 0 0 0 0 0.04 0"/>
<feBlend mode="normal" in2="BackgroundImageFix" result="effect1_dropShadow_1006_7537"/>
<feBlend mode="normal" in="SourceGraphic" in2="effect1_dropShadow_1006_7537" result="shape"/>
</filter>
<clipPath id="clip0_1006_7537">
<rect width="12" height="12" fill="white" transform="translate(33 83)"/>
</clipPath>
</defs>
</svg>
