<svg width="12" height="12" viewBox="0 0 12 12" fill="none" xmlns="http://www.w3.org/2000/svg">
<g clip-path="url(#clip0_432_10186)">
<path d="M5.99913 11.5332C9.07103 11.5332 11.5547 9.071 11.5547 6.02564C11.5547 2.98029 9.07103 0.518084 5.99913 0.518084C2.92724 0.518084 0.443577 2.98029 0.443576 6.02564C0.443576 9.05804 2.92724 11.5332 5.99913 11.5332ZM6.28671 9.26538L5.72462 9.26538C5.65926 9.26538 5.60697 9.21355 5.60697 9.14875L5.68541 4.67791C5.68541 4.61312 5.73769 4.56128 5.80305 4.56128L6.19521 4.56128C6.26057 4.56128 6.31286 4.61312 6.31286 4.67791L6.40436 9.14875C6.40436 9.21355 6.35207 9.26538 6.28671 9.26538ZM5.64619 2.77294C5.75077 2.66927 5.86841 2.63039 5.99913 2.63039C6.12985 2.63039 6.2475 2.66927 6.339 2.75998C6.44358 2.8507 6.50894 2.99325 6.50894 3.13579C6.50894 3.26538 6.45665 3.38201 6.36515 3.48569C6.27364 3.58936 6.12985 3.64119 5.98606 3.64119C5.8292 3.64119 5.69848 3.5764 5.5939 3.45977C5.52854 3.38201 5.48933 3.2913 5.47626 3.18763C5.47626 3.01916 5.52854 2.88957 5.64619 2.77294Z" fill="#333333"/>
</g>
<defs>
<clipPath id="clip0_432_10186">
<rect width="12" height="12" fill="white" transform="translate(12 12) rotate(-180)"/>
</clipPath>
</defs>
</svg>
