<svg width="33" height="17" viewBox="0 0 33 17" fill="none" xmlns="http://www.w3.org/2000/svg">
<rect x="0.5" y="0.5" width="32" height="16" rx="8" stroke="#36AEE2"/>
<path d="M14.6172 10.5547H13.6895V8.2793H11.7754V9.09961H7.74219V4.66602H8.66992V6.15039H10.8574V4.66602H11.7754V5.64258H13.6895V4.08984H14.6172V10.5547ZM14.8125 12.6445H8.9043V9.91992H9.8418V11.8926H14.8125V12.6445ZM10.8574 8.34766V6.86328H8.66992V8.34766H10.8574ZM13.6895 7.52734V6.4043H11.7754V7.52734H13.6895ZM23.4598 9.26562H22.532V8.20117H20.325V7.43945H22.532V6.375H20.4129C20.1329 7.07161 19.674 7.66732 19.0359 8.16211C18.3979 8.6569 17.6004 9.04102 16.6434 9.31445L16.2723 8.5918C17.3042 8.29557 18.1147 7.87891 18.7039 7.3418C19.2964 6.80469 19.6349 6.18294 19.7195 5.47656H16.7215V4.71484H20.7254C20.7254 5.02409 20.6945 5.33333 20.6326 5.64258H22.532V4.08984H23.4598V9.26562ZM20.5789 9.36328C21.1648 9.36328 21.6792 9.43164 22.1219 9.56836C22.5646 9.70508 22.9064 9.90202 23.1473 10.1592C23.3914 10.4163 23.5151 10.7207 23.5184 11.0723C23.5151 11.4238 23.3914 11.7298 23.1473 11.9902C22.9064 12.2474 22.5646 12.4443 22.1219 12.5811C21.6792 12.721 21.1648 12.791 20.5789 12.791C19.9832 12.791 19.4624 12.721 19.0164 12.5811C18.5737 12.4443 18.2319 12.2474 17.991 11.9902C17.7501 11.7298 17.6297 11.4238 17.6297 11.0723C17.6297 10.7207 17.7501 10.4163 17.991 10.1592C18.2319 9.90202 18.5737 9.70508 19.0164 9.56836C19.4624 9.43164 19.9832 9.36328 20.5789 9.36328ZM20.5789 10.0957C20.1622 10.0957 19.8009 10.1348 19.4949 10.2129C19.1922 10.2878 18.9578 10.3984 18.7918 10.5449C18.629 10.6914 18.5477 10.8672 18.5477 11.0723C18.5477 11.2741 18.629 11.4482 18.7918 11.5947C18.9578 11.7412 19.1922 11.8535 19.4949 11.9316C19.8009 12.0098 20.1622 12.0488 20.5789 12.0488C20.9891 12.0488 21.3439 12.0098 21.6434 11.9316C21.9461 11.8535 22.1788 11.7412 22.3416 11.5947C22.5044 11.4482 22.5874 11.2741 22.5906 11.0723C22.5874 10.763 22.4067 10.5238 22.0486 10.3545C21.6906 10.182 21.2007 10.0957 20.5789 10.0957Z" fill="#36AEE2"/>
</svg>
