<svg width="23" height="17" viewBox="0 0 23 17" fill="none" xmlns="http://www.w3.org/2000/svg">
<path d="M21.297 8.65564H16.8869C17.0973 8.51316 17.2669 8.30962 17.3619 8.05858C17.5586 7.5633 17.4297 7.00695 17.0362 6.64057C17.0294 6.63379 17.0226 6.627 17.0159 6.627L9.59334 0.330756C9.10484 -0.110252 8.35173 -0.110252 7.86323 0.330756L0.433932 6.627C0.427147 6.63379 0.420364 6.64057 0.413579 6.64057C0.0200634 7.00016 -0.102063 7.55651 0.0879097 8.05858C0.284667 8.55387 0.752816 8.87954 1.28881 8.87954H1.39058V16.2546C1.39058 16.5599 1.63483 16.8041 1.94015 16.8041H12.3005H15.4825H21.297C22.2333 16.8041 23 16.0442 23 15.1012V10.3586C23 9.42232 22.2333 8.65564 21.297 8.65564ZM5.75996 12.4008V15.705H2.48971V8.32997C2.48971 8.02466 2.24546 7.78041 1.94015 7.78041H1.2956C1.18026 7.78041 1.13276 7.70578 1.11919 7.65828C1.10562 7.61079 1.08527 7.52937 1.1599 7.45474L8.57563 1.16528C8.58241 1.15849 8.5892 1.15171 8.59598 1.15171C8.67061 1.08386 8.78596 1.08386 8.8538 1.15171C8.86059 1.1585 8.86737 1.16528 8.87416 1.16528L16.2967 7.45474C16.3713 7.52937 16.3577 7.61758 16.3374 7.65828C16.317 7.70578 16.2695 7.78041 16.161 7.78041H15.4825C15.1772 7.78041 14.9329 8.02466 14.9329 8.32997V8.65564H12.3005C11.4659 8.65564 10.7671 9.25949 10.6246 10.0601C10.0615 9.59194 9.35588 9.34768 8.61634 9.37482C7.04228 9.4291 5.75996 10.7861 5.75996 12.4008ZM10.5975 15.705H6.8523V12.4008C6.8523 11.3695 7.65969 10.5079 8.65705 10.474C9.17269 10.4536 9.6544 10.6436 10.0276 10.9964C10.3939 11.3492 10.5975 11.8309 10.5975 12.3398V15.1012V15.705ZM21.9009 15.1012C21.9009 15.4336 21.6295 15.705 21.297 15.705H16.0321H12.3005C11.968 15.705 11.6966 15.4336 11.6966 15.1012V12.3398V12.0955H14.9397H16.0389H21.9077V15.1012H21.9009ZM21.9009 10.8268H16.0321H14.9329H11.6966V10.3586C11.6966 10.0262 11.968 9.75477 12.3005 9.75477H14.9329H16.0321H21.297C21.6295 9.75477 21.9009 10.0262 21.9009 10.3586V10.8268Z" fill="white"/>
</svg>
