<svg width="25" height="25" viewBox="0 0 25 25" fill="none" xmlns="http://www.w3.org/2000/svg">
<path d="M22.6562 4.6875H2.34375C2.13655 4.6875 1.93784 4.76981 1.79132 4.91632C1.64481 5.06284 1.5625 5.26155 1.5625 5.46875C1.5625 5.67595 1.64481 5.87466 1.79132 6.02118C1.93784 6.16769 2.13655 6.25 2.34375 6.25H22.6562C22.8635 6.25 23.0622 6.16769 23.2087 6.02118C23.3552 5.87466 23.4375 5.67595 23.4375 5.46875C23.4375 5.26155 23.3552 5.06284 23.2087 4.91632C23.0622 4.76981 22.8635 4.6875 22.6562 4.6875Z" fill="black"/>
<path d="M2.34375 13.8125H12.5C12.7072 13.8125 12.9059 13.7302 13.0524 13.5837C13.1989 13.4372 13.2812 13.2385 13.2812 13.0312C13.2812 12.824 13.1989 12.6253 13.0524 12.4788C12.9059 12.3323 12.7072 12.25 12.5 12.25H2.34375C2.13655 12.25 1.93784 12.3323 1.79132 12.4788C1.64481 12.6253 1.5625 12.824 1.5625 13.0312C1.5625 13.2385 1.64481 13.4372 1.79132 13.5837C1.93784 13.7302 2.13655 13.8125 2.34375 13.8125Z" fill="black"/>
<path d="M19.5312 19.8125H2.34375C2.13655 19.8125 1.93784 19.8948 1.79132 20.0413C1.64481 20.1878 1.5625 20.3865 1.5625 20.5938C1.5625 20.801 1.64481 20.9997 1.79132 21.1462C1.93784 21.2927 2.13655 21.375 2.34375 21.375H19.5312C19.7385 21.375 19.9372 21.2927 20.0837 21.1462C20.2302 20.9997 20.3125 20.801 20.3125 20.5938C20.3125 20.3865 20.2302 20.1878 20.0837 20.0413C19.9372 19.8948 19.7385 19.8125 19.5312 19.8125Z" fill="black"/>
</svg>
