<svg width="23" height="18" viewBox="0 0 23 18" fill="none" xmlns="http://www.w3.org/2000/svg">
<path d="M21.6562 0.6875H1.34375C1.13655 0.6875 0.937836 0.76981 0.791323 0.916323C0.64481 1.06284 0.5625 1.26155 0.5625 1.46875C0.5625 1.67595 0.64481 1.87466 0.791323 2.02118C0.937836 2.16769 1.13655 2.25 1.34375 2.25H21.6562C21.8635 2.25 22.0622 2.16769 22.2087 2.02118C22.3552 1.87466 22.4375 1.67595 22.4375 1.46875C22.4375 1.26155 22.3552 1.06284 22.2087 0.916323C22.0622 0.76981 21.8635 0.6875 21.6562 0.6875Z" fill="white"/>
<path d="M1.34375 9.8125H11.5C11.7072 9.8125 11.9059 9.73019 12.0524 9.58368C12.1989 9.43717 12.2812 9.23845 12.2812 9.03125C12.2812 8.82405 12.1989 8.62534 12.0524 8.47882C11.9059 8.33231 11.7072 8.25 11.5 8.25H1.34375C1.13655 8.25 0.937836 8.33231 0.791323 8.47882C0.64481 8.62534 0.5625 8.82405 0.5625 9.03125C0.5625 9.23845 0.64481 9.43717 0.791323 9.58368C0.937836 9.73019 1.13655 9.8125 1.34375 9.8125Z" fill="white"/>
<path d="M18.5312 15.8125H1.34375C1.13655 15.8125 0.937836 15.8948 0.791323 16.0413C0.64481 16.1878 0.5625 16.3865 0.5625 16.5938C0.5625 16.801 0.64481 16.9997 0.791323 17.1462C0.937836 17.2927 1.13655 17.375 1.34375 17.375H18.5312C18.7385 17.375 18.9372 17.2927 19.0837 17.1462C19.2302 16.9997 19.3125 16.801 19.3125 16.5938C19.3125 16.3865 19.2302 16.1878 19.0837 16.0413C18.9372 15.8948 18.7385 15.8125 18.5312 15.8125Z" fill="white"/>
</svg>
