<svg width="33" height="17" viewBox="0 0 33 17" fill="none" xmlns="http://www.w3.org/2000/svg">
<rect width="33" height="17" rx="8.5" fill="#FBC02D"/>
<path d="M14.8516 12.8301H13.9629V4.08008H14.8516V12.8301ZM13.0938 12.4004H12.2148V9.57812H10.9453C10.7891 10.0176 10.5693 10.3561 10.2861 10.5938C10.0029 10.8314 9.67578 10.9486 9.30469 10.9453C8.92708 10.9486 8.59505 10.8249 8.30859 10.5742C8.02539 10.3236 7.80566 9.96549 7.64941 9.5C7.49642 9.03125 7.41992 8.48438 7.41992 7.85938C7.41992 7.23438 7.49642 6.68913 7.64941 6.22363C7.80566 5.75814 8.02539 5.40169 8.30859 5.1543C8.59505 4.90365 8.92708 4.77995 9.30469 4.7832C9.67578 4.77995 10.0013 4.89714 10.2812 5.13477C10.5645 5.36914 10.7858 5.70443 10.9453 6.14062H12.2148V4.24609H13.0938V12.4004ZM9.30469 5.65234C9.08984 5.65234 8.9043 5.74023 8.74805 5.91602C8.59505 6.08854 8.47624 6.34082 8.3916 6.67285C8.31022 7.00163 8.26953 7.39714 8.26953 7.85938C8.26953 8.32161 8.31022 8.71875 8.3916 9.05078C8.47624 9.37956 8.59505 9.63184 8.74805 9.80762C8.9043 9.98014 9.08984 10.0664 9.30469 10.0664C9.51953 10.0664 9.70508 9.98014 9.86133 9.80762C10.0208 9.63184 10.1429 9.37793 10.2275 9.0459C10.3154 8.71387 10.3594 8.31836 10.3594 7.85938C10.3594 7.40039 10.3154 7.00488 10.2275 6.67285C10.1429 6.34082 10.0208 6.08854 9.86133 5.91602C9.70508 5.74023 9.51953 5.65234 9.30469 5.65234ZM11.1357 6.89258C11.1846 7.1888 11.209 7.51107 11.209 7.85938C11.209 8.20443 11.1846 8.52344 11.1357 8.81641H12.2148V6.89258H11.1357ZM23.4598 9.28516H22.532V7.06836H20.9012V6.30664H22.532V4.08008H23.4598V9.28516ZM20.5301 9.5293C21.1388 9.5293 21.6645 9.5944 22.1072 9.72461C22.5532 9.85482 22.895 10.0436 23.1326 10.291C23.3702 10.5384 23.4891 10.8346 23.4891 11.1797C23.4891 11.5247 23.3702 11.8193 23.1326 12.0635C22.895 12.3109 22.5548 12.4997 22.1121 12.6299C21.6694 12.7601 21.1421 12.8268 20.5301 12.8301C19.9181 12.8268 19.3891 12.7601 18.9432 12.6299C18.5005 12.4997 18.1603 12.3109 17.9227 12.0635C17.685 11.8193 17.5678 11.5247 17.5711 11.1797C17.5678 10.8346 17.685 10.5384 17.9227 10.291C18.1603 10.0436 18.5005 9.85482 18.9432 9.72461C19.3891 9.5944 19.9181 9.5293 20.5301 9.5293ZM20.5301 10.252C19.8855 10.252 19.3842 10.3333 19.0262 10.4961C18.6681 10.6556 18.4891 10.8835 18.4891 11.1797C18.4891 11.375 18.5704 11.5426 18.7332 11.6826C18.896 11.8193 19.1303 11.9235 19.4363 11.9951C19.7423 12.0667 20.1069 12.1009 20.5301 12.0977C20.9533 12.1009 21.3178 12.0667 21.6238 11.9951C21.9298 11.9235 22.1642 11.8193 22.327 11.6826C22.4897 11.5426 22.5711 11.375 22.5711 11.1797C22.5711 10.8835 22.3921 10.6556 22.034 10.4961C21.6759 10.3333 21.1746 10.252 20.5301 10.252ZM19.2996 5.62305C19.2996 5.99414 19.3842 6.35384 19.5535 6.70215C19.7228 7.05046 19.9669 7.36133 20.2859 7.63477C20.6049 7.90495 20.9793 8.11328 21.409 8.25977L20.9305 8.99219C20.4487 8.82292 20.0288 8.57389 19.6707 8.24512C19.3159 7.91309 19.0408 7.52734 18.8455 7.08789C18.6535 7.58594 18.3686 8.02214 17.991 8.39648C17.6134 8.76758 17.1674 9.04753 16.6531 9.23633L16.1648 8.49414C16.6076 8.34115 16.9933 8.11816 17.3221 7.8252C17.6541 7.52897 17.908 7.19043 18.0838 6.80957C18.2628 6.42871 18.3523 6.03646 18.3523 5.63281V5.4375H16.4578V4.68555H21.1746V5.4375H19.2996V5.62305Z" fill="white"/>
</svg>
