<svg width="33" height="17" viewBox="0 0 33 17" fill="none" xmlns="http://www.w3.org/2000/svg">
<rect width="33" height="17" rx="8.5" fill="#EC4E39"/>
<path d="M12.9121 10.6719H8.81055V4.91992H12.9121V10.6719ZM9.72852 9.91992H12.0137V5.65234H9.72852V9.91992ZM15.5684 12.8496H14.6406V4.08008H15.5684V12.8496ZM24.0398 5.98438H25.3191V6.75586H24.0398V8.65039H23.1121V4.08984H24.0398V5.98438ZM18.493 7.50781C19.1473 7.5013 19.782 7.47038 20.3973 7.41504C21.0125 7.3597 21.6342 7.26693 22.2625 7.13672L22.3797 7.9082C21.0451 8.1556 19.6779 8.2793 18.2781 8.2793H17.5652V4.48047H18.493V7.50781ZM19.3328 10.1641H23.1121V9.08984H24.0398V12.7227H18.4246V9.08984H19.3328V10.1641ZM23.1121 11.9707V10.916H19.3328V11.9707H23.1121Z" fill="white"/>
</svg>
