<svg width="33" height="17" viewBox="0 0 33 17" fill="none" xmlns="http://www.w3.org/2000/svg">
<rect width="33" height="17" rx="8.5" fill="#3DB15B"/>
<path d="M15.1973 5.98438H16.4766V6.75586H15.1973V8.65039H14.2695V4.08984H15.1973V5.98438ZM9.65039 7.50781C10.3047 7.5013 10.9395 7.47038 11.5547 7.41504C12.1699 7.3597 12.7917 7.26693 13.4199 7.13672L13.5371 7.9082C12.2025 8.1556 10.8353 8.2793 9.43555 8.2793H8.72266V4.48047H9.65039V7.50781ZM10.4902 10.1641H14.2695V9.08984H15.1973V12.7227H9.58203V9.08984H10.4902V10.1641ZM14.2695 11.9707V10.916H10.4902V11.9707H14.2695ZM25.1629 9.95898H21.5887V12.8301H20.6805V9.95898H17.1551V9.22656H25.1629V9.95898ZM19.0691 5.57422H23.2293V4.43164H24.157V8.23047H18.1512V4.43164H19.0691V5.57422ZM23.2293 7.48828V6.31641H19.0691V7.48828H23.2293Z" fill="white"/>
</svg>
