<svg width="27" height="27" viewBox="0 0 27 27" fill="none" xmlns="http://www.w3.org/2000/svg">
<circle cx="13.5" cy="13.5" r="13.5" fill="#D1D1D1"/>
<path d="M6.33203 19.3329C6.33203 20.0663 6.93203 20.6663 7.66536 20.6663H9.3987L6.33203 17.5996V19.3329Z" fill="white"/>
<path d="M19.3997 9.73255L17.2664 7.59922C16.7331 7.06589 15.9331 7.06589 15.3997 7.59922L15.2664 7.73255C14.9997 7.99922 14.9997 8.39922 15.2664 8.66589L18.3331 11.7326C18.5997 11.9992 18.9997 11.9992 19.2664 11.7326L19.3997 11.5992C19.9331 11.0659 19.9331 10.2659 19.3997 9.73255Z" fill="white"/>
<path d="M14.3332 9.59844C14.0666 9.33177 13.6666 9.33177 13.3999 9.59844L7.33325 15.6651C6.99991 15.9984 6.99991 16.3984 7.26658 16.6651L10.3332 19.7318C10.5999 19.9984 10.9999 19.9984 11.2666 19.7318L17.3332 13.6651C17.5999 13.3984 17.5999 12.9984 17.3332 12.7318L14.3332 9.59844Z" fill="white"/>
</svg>
