<svg width="17" height="17" viewBox="0 0 17 17" fill="none" xmlns="http://www.w3.org/2000/svg">
<path d="M8.4987 2.83203C8.10749 2.83203 7.79036 3.14917 7.79036 3.54036V7.79036H3.54036C3.14917 7.79036 2.83203 8.10749 2.83203 8.4987C2.83203 8.88991 3.14917 9.20703 3.54036 9.20703H7.79036V13.457C7.79036 13.8482 8.10749 14.1654 8.4987 14.1654C8.88991 14.1654 9.20703 13.8482 9.20703 13.457V9.20703H13.457C13.8482 9.20703 14.1654 8.88991 14.1654 8.4987C14.1654 8.10749 13.8482 7.79036 13.457 7.79036H9.20703V3.54036C9.20703 3.14917 8.88991 2.83203 8.4987 2.83203Z" fill="white"/>
</svg>
