<svg width="21" height="20" viewBox="0 0 21 20" fill="none" xmlns="http://www.w3.org/2000/svg">
<path fill-rule="evenodd" clip-rule="evenodd" d="M5.10938 10.0013C5.10938 6.77964 7.7131 4.16797 10.925 4.16797C14.1369 4.16797 16.7406 6.77964 16.7406 10.0013C16.7406 11.3116 16.3099 12.521 15.5828 13.4948L16.4972 14.4121C16.8217 14.7375 16.8217 15.2651 16.4972 15.5906C16.1728 15.916 15.6467 15.916 15.3223 15.5906L14.4078 14.6733C13.437 15.4026 12.2313 15.8346 10.925 15.8346C7.7131 15.8346 5.10938 13.223 5.10938 10.0013ZM14.3907 12.2991L13.174 11.0787C12.8496 10.7533 12.3235 10.7533 11.9991 11.0787C11.6747 11.4041 11.6747 11.9318 11.9991 12.2572L13.2158 13.4776C12.5591 13.9139 11.7716 14.168 10.925 14.168C8.63081 14.168 6.77098 12.3025 6.77098 10.0013C6.77098 7.70014 8.63081 5.83464 10.925 5.83464C13.2191 5.83464 15.079 7.70014 15.079 10.0013C15.079 10.8506 14.8257 11.6404 14.3907 12.2991Z" fill="#333333"/>
</svg>
