<svg width="149" height="149" viewBox="0 0 149 149" fill="none" xmlns="http://www.w3.org/2000/svg">
<path d="M17.6681 110.592C13.9609 111.256 9.92602 112.466 9.11248 114.812C8.54926 116.436 9.79788 118.2 11.723 119.434C13.648 120.67 16.1721 121.466 18.6872 122.16C32.4399 125.951 62.6929 126.323 77.4588 127.39C126.468 130.927 143.564 120.781 130.705 113.423C127.129 111.379 123.103 111.316 118.452 110.413C105.384 107.877 32.8631 108.226 29.5702 108.408C25.8184 108.613 21.256 109.945 17.6651 110.589L17.6681 110.592Z" fill="#AF93A2"/>
<path d="M95.0805 125.565C74.0774 125.565 51.9599 124.176 27.9113 121.36C23.5724 120.85 19.4004 120.281 16.0598 118.887C13.5864 117.856 11.8342 116.327 11.3752 114.801C11.1368 114.011 11.2501 113.263 11.712 112.578C11.7597 112.509 11.852 112.492 11.9176 112.536C11.9861 112.581 12.004 112.673 11.9593 112.742C11.5511 113.35 11.4497 114.014 11.6613 114.715C12.0875 116.136 13.8188 117.629 16.176 118.612C19.4838 119.992 23.632 120.558 27.947 121.065C57.5861 124.537 84.2869 125.839 109.581 125.043C114.975 124.873 120.634 124.584 125.339 123.088C128.668 122.031 131.18 120.293 132.062 118.443C132.479 117.566 132.521 116.693 132.187 115.847C132.158 115.77 132.193 115.683 132.271 115.653C132.348 115.624 132.435 115.659 132.465 115.737C132.831 116.664 132.786 117.617 132.333 118.568C131.419 120.493 128.838 122.29 125.432 123.372C120.691 124.876 115.008 125.168 109.593 125.338C104.81 125.487 99.9766 125.565 95.0835 125.565H95.0805Z" fill="white"/>
<path d="M85.947 74.6994C83.2024 81.1421 79.8409 87.3614 75.5199 92.8744C74.3697 94.3435 73.0972 95.8008 71.4075 96.5934C69.7179 97.3861 67.5067 97.3444 66.1836 96.0302C66.2104 98.4678 66.2343 100.903 66.2611 103.34C68.6093 104.014 70.9874 104.69 73.428 104.753C75.8686 104.815 78.4195 104.198 80.2313 102.562C81.9329 101.028 82.8031 98.7986 83.6136 96.653C86.096 90.097 88.5753 83.538 91.0577 76.982C91.7013 75.2805 93.8887 71.3677 91.3825 70.0655C88.6826 68.6619 86.7158 72.8935 85.947 74.7023V74.6994Z" fill="#FFDE91"/>
<path d="M115.347 71.0496C117.266 72.6171 119.608 73.6631 122.055 74.0505C123.322 74.2501 124.955 74.572 125.154 75.8385C125.276 76.6222 124.725 77.3434 124.162 77.9066C120.377 81.6972 114.748 83.2974 109.408 82.9011C104.065 82.5047 98.9928 80.2787 94.5198 77.3285C92.3802 75.9189 90.1243 73.8151 90.5028 71.2791C90.9081 68.5583 93.9536 67.116 96.0426 65.8495C97.9856 64.6694 100.131 62.7503 102.372 62.1871C104.691 61.606 107.164 63.0424 108.898 64.4579C109.822 65.2088 114.411 71.3029 115.347 71.0526V71.0496Z" fill="#E6E7E8"/>
<path d="M105.88 71.9556C105.04 69.518 103.815 66.8062 101.222 65.9807C99.5475 65.4473 97.6611 65.8764 96.1473 66.7346C94.6334 67.5929 93.4236 68.8355 92.2375 70.0633C90.1694 72.2 88.0834 74.3605 86.5815 76.8786C85.0796 79.3967 84.1885 82.3379 84.7071 85.1808C85.1302 87.5112 86.4533 89.6002 87.7616 91.6206C91.874 97.965 96.1264 104.244 100.888 110.177C101.866 111.396 103.117 112.722 104.748 112.68C106.032 112.65 107.096 111.756 107.924 110.836C112.707 105.507 112.001 100.087 111.11 93.7275C110.076 86.343 108.324 79.045 105.883 71.9556H105.88Z" fill="#FFDE91"/>
<path d="M87.6376 91.6978C86.4039 89.7936 85.0033 87.6331 84.5622 85.2044C83.9603 81.8906 85.2596 78.8033 86.4575 76.8008L86.7138 76.9528C85.5427 78.9136 84.2702 81.9264 84.8573 85.1507C85.2894 87.5198 86.6691 89.6535 87.8909 91.5339L87.6406 91.6948L87.6376 91.6978Z" fill="white"/>
<path d="M103.379 65.3869C101.609 64.5525 99.1145 64.1532 98.0268 65.7773C97.3444 66.7935 97.5977 68.2149 98.289 69.2251C98.9834 70.2324 100.035 70.9267 101.046 71.6181C108.797 76.9106 113.699 80.9991 119.328 88.5087C120.183 89.6501 120.672 90.9732 121.161 92.3172C122.32 95.4879 114.706 100.155 111.75 99.4066C112.441 101.129 114.45 104.234 115.138 105.957C118.371 104.881 121.602 103.528 124.126 101.233C126.65 98.9417 128.378 95.5475 127.934 92.1652C127.514 88.9766 125.318 86.3512 123.211 83.9225C117.349 77.1609 111.696 69.3056 103.376 65.3869H103.379Z" fill="#FFDE91"/>
<path d="M104.305 61.7302C105.19 63.4526 105.157 65.6161 104.221 67.3118C103.131 69.2905 101.03 70.4765 98.9764 71.4182C96.5418 72.5357 93.8538 73.4774 91.2254 72.9559C88.5971 72.4344 86.2011 69.9401 86.6988 67.3058C87.116 65.0887 89.2557 63.6881 91.2016 62.5497C95.0816 60.276 101.292 55.2308 104.305 61.7302Z" fill="#E6E7E8"/>
<path d="M88.5242 21.8948C92.3803 20.223 97.184 20.5866 100.429 23.2537C103.412 25.7062 104.729 29.5951 106.961 32.748C108.869 35.4419 111.589 37.8855 111.887 41.1724C112.12 43.7382 110.782 46.161 109.402 48.3364C105.355 54.7225 100.551 60.6348 95.0176 65.7843C93.6587 67.0478 92.2045 68.2964 90.4373 68.8686C88.6702 69.4407 86.5127 69.1785 85.2998 67.7749C84.0422 66.3177 84.1376 64.1721 84.2359 62.25C84.5697 55.8847 84.1942 49.4837 83.1274 43.2018C82.594 40.0609 81.8877 36.9468 81.0146 33.8834C80.2189 31.0971 80.4394 29.8723 82.1052 27.3959C83.6966 25.0298 85.8898 23.0332 88.5212 21.8918L88.5242 21.8948Z" fill="#E6E7E8"/>
<path d="M83.8753 61.7136C84.2061 62.8609 84.5786 64.0231 85.2938 64.9797C86.009 65.9333 87.1384 66.6574 88.3304 66.5889C89.7578 66.5055 90.8753 65.3641 91.7514 64.2347C97.6518 56.6208 99.1865 46.5961 100.453 37.0452C100.59 36.0052 100.718 34.9026 100.286 33.949C99.4965 32.2057 97.2555 31.7318 95.3423 31.6991C90.8217 31.6216 84.2359 32.7361 80.7672 35.9605C79.1669 37.4475 80.3798 41.2112 80.6092 43.3538C80.9191 46.2504 81.2738 49.141 81.7446 52.0137C82.281 55.2828 82.9604 58.531 83.8753 61.7166V61.7136Z" fill="#D6B2A4"/>
<path d="M80.2332 32.1225C78.6985 34.0148 77.6942 36.2766 76.7108 38.5056C76.3234 39.3847 75.933 40.4098 76.3651 41.2711C76.9462 42.4273 78.5435 42.4899 79.8308 42.3886C85.5137 41.9416 91.1966 41.4946 96.8824 41.0476C98.3635 40.9313 99.9846 40.7525 101.028 39.6946C102.36 38.3447 102.19 36.0978 101.448 34.3545C100.33 31.7291 98.0953 29.5984 95.4192 28.609C92.6448 27.5839 89.8913 28.1978 87.0454 28.4064C84.2859 28.609 81.9824 29.9679 80.2332 32.1254V32.1225Z" fill="#E6E7E8"/>
<path d="M88.9453 60.3369C89.3357 60.6617 89.735 60.9895 90.2029 61.1832C90.6737 61.3769 91.231 61.4186 91.675 61.1743C92.0862 60.9508 92.3455 60.5187 92.4766 60.0687C92.6793 59.3833 92.6137 57.1334 91.4426 57.9976C91.0462 58.2896 90.787 58.9601 90.4115 59.3237C89.9824 59.7379 89.4847 60.0836 88.9453 60.3339V60.3369Z" fill="#292E54"/>
<path d="M83.1305 49.4828C82.6328 49.7838 82.615 50.4841 82.6537 51.0652C82.6716 51.3215 82.6895 51.5807 82.7908 51.8161C82.8921 52.0516 83.0947 52.2572 83.351 52.2929C83.6609 52.3347 83.953 52.1052 84.0901 51.8251C84.2271 51.545 84.242 51.2231 84.251 50.9132C84.2629 50.5556 84.2748 50.1861 84.1258 49.8613C83.9768 49.5364 83.6162 49.2802 83.2735 49.3696" fill="#292E54"/>
<path d="M86.9032 49.261C86.644 49.7974 86.5099 50.3963 86.5158 50.9923C86.5158 51.2754 86.5724 51.5943 86.8079 51.7523C87.0463 51.9102 87.386 51.8268 87.5976 51.636C87.8121 51.4453 87.9283 51.1711 88.0416 50.9089C88.1816 50.5781 88.3247 50.2414 88.3396 49.8808C88.3575 49.5232 88.2204 49.1358 87.9164 48.9481C87.6125 48.7603 87.1327 48.8646 87.0105 49.2014" fill="#292E54"/>
<path d="M91.2848 70.2503C90.4474 70.2503 89.6368 70.1252 88.874 69.8689C88.7965 69.8421 88.7548 69.7586 88.7816 69.6812C88.8084 69.6037 88.8918 69.562 88.9693 69.5888C91.3175 70.3755 94.1456 69.8808 96.7322 68.2329C99.0596 66.7488 100.883 64.6122 102.645 62.5441C102.698 62.4815 102.794 62.4755 102.856 62.5262C102.919 62.5798 102.928 62.6722 102.874 62.7348C101.098 64.8178 99.2593 66.9723 96.8931 68.4802C95.0664 69.6454 93.1145 70.2503 91.2848 70.2503Z" fill="white"/>
<path d="M113.047 108.982C114.09 108.913 115.178 108.848 116.138 109.265C117.094 109.682 117.854 110.758 117.547 111.756C117.205 112.862 115.87 113.252 114.731 113.47C112.198 113.958 109.665 114.444 107.132 114.933C102.769 115.773 98.3918 116.613 93.9576 116.882C89.3922 117.156 84.815 116.819 80.2556 116.479C74.1108 116.023 67.9631 115.567 61.8183 115.112C60.9034 115.043 59.9409 114.96 59.1929 114.429C58.4449 113.899 58.0486 112.76 58.6178 112.045C58.9515 111.625 59.5088 111.461 60.0303 111.327C66.8843 109.554 73.9469 108.6 81.0244 108.484C84.1027 108.433 87.0559 108.937 90.1283 109.101C93.7848 109.298 97.4472 109.39 101.113 109.381C105.094 109.369 109.075 109.238 113.047 108.982Z" fill="#292E54"/>
<path d="M92.4832 114.604C91.5594 114.604 90.6386 114.553 89.7148 114.428C89.6224 114.416 89.5598 114.332 89.5718 114.24C89.5837 114.148 89.6671 114.085 89.7595 114.097C93.1329 114.55 96.5539 114.025 99.8587 113.519L114.011 111.349C114.464 111.281 114.929 111.185 115.164 110.864C115.289 110.691 115.262 110.423 115.164 110.259C115.113 110.178 115.03 110.086 114.89 110.107C114.8 110.122 114.714 110.059 114.699 109.967C114.684 109.874 114.747 109.791 114.839 109.776C115.081 109.74 115.31 109.856 115.45 110.086C115.632 110.387 115.626 110.798 115.432 111.06C115.119 111.486 114.583 111.6 114.061 111.68L99.9094 113.85C97.4747 114.222 94.9805 114.604 92.4802 114.604H92.4832Z" fill="white"/>
<path d="M112.842 97.8328C111.65 95.9256 109.865 94.1316 107.621 93.9558C105.783 93.8098 104.028 94.7932 102.645 96.012C101.009 97.4543 99.7065 99.2692 98.8662 101.281C98.3447 102.529 97.999 103.897 98.2285 105.229C98.4579 106.561 99.3698 107.837 100.672 108.188C101.977 108.54 103.572 107.688 103.741 106.347C102.91 107.792 102.397 109.89 103.709 110.921C104.928 111.881 106.757 111.076 107.836 109.958C108.915 108.844 109.752 107.393 111.177 106.773C112.291 106.29 113.584 106.406 114.723 105.977C118.293 104.63 113.999 99.6804 112.842 97.8298V97.8328Z" fill="#D6B2A4"/>
<path d="M102.771 107.559C102.771 107.559 102.75 107.559 102.738 107.556C102.657 107.538 102.607 107.458 102.625 107.378C102.97 105.858 103.328 104.284 103.987 102.83C104.726 101.194 105.775 99.9305 107.017 99.1826C108.507 98.2826 110.295 98.1515 111.678 98.8399C111.752 98.8756 111.782 98.965 111.743 99.0395C111.708 99.114 111.615 99.1438 111.544 99.1081C110.251 98.4644 108.576 98.5925 107.169 99.4388C105.977 100.157 104.97 101.373 104.255 102.955C103.608 104.383 103.253 105.941 102.911 107.446C102.896 107.515 102.833 107.562 102.765 107.562L102.771 107.559Z" fill="white"/>
<path d="M98.6585 101.958C98.6048 101.958 98.5542 101.928 98.5273 101.877C96.0182 97.0499 93.4196 92.0554 92.1084 86.6586C90.6452 80.6331 91.125 74.8757 93.4613 70.4474C93.5001 70.3729 93.5895 70.3461 93.664 70.3848C93.7355 70.4236 93.7653 70.513 93.7266 70.5875C91.426 74.9532 90.9552 80.6361 92.4005 86.5901C93.7027 91.9541 96.2894 96.9307 98.7926 101.74C98.8313 101.812 98.8015 101.904 98.73 101.94C98.7091 101.952 98.6853 101.958 98.6614 101.958H98.6585Z" fill="white"/>
<path d="M104.797 41.3597C103.408 42.0362 102.49 43.5768 102.559 45.1175C102.586 45.7284 102.753 46.3482 102.624 46.9472C102.434 47.8561 101.626 48.4879 100.842 48.9885C99.3226 49.963 97.6895 50.7556 95.985 51.3457C95.7227 51.4381 95.4128 51.5185 95.1774 51.3695C94.9688 51.2384 94.8943 50.9702 94.7244 50.7914C94.3996 50.4547 93.8483 50.5441 93.3954 50.6543C92.5818 50.854 91.7385 51.0685 91.0888 51.596C90.4392 52.1235 90.0429 53.0651 90.4005 53.8221C90.8266 54.728 92.0871 54.9217 93.0258 54.582C93.9675 54.2393 94.7155 53.5241 95.5648 52.9966C96.8432 52.2009 98.3392 51.8374 99.704 51.1997C101.364 50.4249 102.83 49.2358 103.93 47.7727C105.36 48.02 106.898 47.5402 107.932 46.5181C108.9 45.5615 109.851 43.4576 109.1 42.1136C108.325 40.7309 106.031 40.7548 104.794 41.3567L104.797 41.3597Z" fill="#292E54"/>
<path d="M67.5473 94.6726C66.9721 93.9753 66.2391 93.2542 65.3004 93.1201C63.9683 92.9294 63.0266 93.9902 62.4813 94.9915C60.0764 99.4198 60.1241 104.983 62.6094 109.847C63.1697 110.943 64.1352 112.174 65.4583 112.201C66.4745 112.222 67.2344 111.456 67.4281 110.61C67.6218 109.763 67.3744 108.849 67.1301 107.966C67.4609 108.825 67.8185 109.704 68.4711 110.434C69.1237 111.164 70.1488 111.727 71.1412 111.653C76.97 111.209 69.3412 96.851 67.5443 94.6726H67.5473Z" fill="#D6B2A4"/>
<path d="M67.2648 108.506C67.2052 108.506 67.1486 108.47 67.1248 108.411C65.7122 104.763 65.1162 100.889 65.4083 97.2058C65.4142 97.1224 65.4858 97.0628 65.5692 97.0688C65.6526 97.0747 65.7122 97.1462 65.7063 97.2297C65.4202 100.868 66.0073 104.698 67.4049 108.303C67.4347 108.381 67.3959 108.467 67.3185 108.497C67.3006 108.503 67.2827 108.506 67.2648 108.506Z" fill="white"/>
<path d="M30.4266 106.46C30.1345 108.281 29.8812 110.215 30.516 111.744C31.2878 113.606 33.1294 114.313 34.7893 114.852C35.5939 115.111 36.4074 115.368 37.2657 115.257C38.0405 115.159 38.8063 114.772 39.5484 114.396C42.3436 112.972 45.0316 111.601 47.6182 110.284C46.459 109.437 45.1388 108.689 42.9456 108.552C41.1635 108.439 40.1324 105.924 39.7301 103.695C39.3666 101.686 39.7689 99.4722 40.2725 97.3684C41.3066 93.0474 42.7548 88.8575 44.5607 84.9805C42.8115 84.8017 41.0086 84.6169 39.155 84.4292C38.1925 84.3309 37.215 84.2236 36.2197 84.1312C35.2423 84.0388 35.2184 83.9435 35.0605 84.9954C34.3721 89.5518 32.8255 94.0665 31.8898 98.5693C31.3414 101.204 30.8557 103.838 30.4325 106.469L30.4266 106.46Z" fill="#292E54"/>
<path d="M37.4349 113.184C37.3932 113.184 37.3515 113.166 37.3217 113.133C36.672 112.397 35.7274 112.174 34.7261 111.938C33.5728 111.667 32.3838 111.387 31.6567 110.267C30.5928 108.628 30.9355 105.695 31.3527 103.323C32.2706 98.0903 33.7159 92.8872 35.6469 87.857C35.6767 87.7795 35.7631 87.7437 35.8406 87.7706C35.9181 87.8004 35.9568 87.8868 35.927 87.9643C34.0049 92.9766 32.5656 98.1618 31.6507 103.377C31.2425 105.695 30.9057 108.553 31.913 110.106C32.5745 111.128 33.6563 111.381 34.8006 111.649C35.8019 111.885 36.8389 112.129 37.5511 112.937C37.6048 112.999 37.5988 113.092 37.5392 113.148C37.5094 113.172 37.4766 113.184 37.4409 113.184H37.4349Z" fill="white"/>
<path d="M4.60361 103.039C4.62447 93.715 4.28475 47.835 4.30561 38.2066C4.30561 37.1785 4.43375 35.9627 5.37841 35.6468C5.79859 35.5067 7.24389 34.1598 7.70579 34.2462C9.97357 34.6753 14.2171 35.5127 16.324 35.912C22.731 37.1189 56.8937 42.7302 60.425 43.4335C61.1402 43.5766 61.9627 43.8299 62.3173 44.7566C62.5169 45.2752 62.511 45.8801 62.4991 46.4523C62.3858 52.2364 63.0563 80.1888 62.9401 85.8449C62.9282 86.4617 63.3513 87.9875 63.0891 88.5418C62.6928 89.3762 60.5859 91.489 59.9243 91.644C57.0278 92.3204 21.9383 101.901 16.7501 103.513C14.0472 104.354 11.2431 105.179 8.34649 106.154C5.68833 107.048 4.59765 105.426 4.60361 103.042V103.039Z" fill="#3C4368"/>
<path d="M6.9375 101.799C7.08054 92.5104 7.33682 47.9594 7.47986 38.8496C7.49476 37.8811 7.63184 36.7427 8.55564 36.4775C8.9639 36.3583 9.4407 36.4537 9.89068 36.549C12.1018 37.0109 14.2474 37.4579 16.3334 37.893C22.6451 39.2102 57.4992 44.592 60.7831 45.337C61.4447 45.486 62.2105 45.7453 62.5503 46.6095C62.741 47.0923 62.744 47.6525 62.741 48.18C62.7082 53.538 62.893 82.441 62.8602 87.8646C62.8572 88.4576 62.8423 89.1013 62.6009 89.6347C62.2344 90.4423 61.5162 90.6628 60.8904 90.8089C58.1488 91.4466 24.2066 100.691 19.0631 102.285C16.3692 103.119 13.565 103.945 10.6595 104.919C7.9805 105.816 6.9077 104.189 6.94346 101.802L6.9375 101.799Z" fill="#3C4368"/>
<path d="M7.08706 101.802L6.78906 101.797C6.86058 97.1417 6.9619 83.4248 7.06024 70.1608C7.15858 57.0011 7.2599 43.3915 7.32844 38.847C7.34334 37.8308 7.49234 36.6269 8.5115 36.3319C8.96744 36.2007 9.4949 36.311 9.91806 36.4004L16.3608 37.7444C19.7699 38.4566 31.6512 40.3757 42.1348 42.0713C51.346 43.5613 59.2996 44.8457 60.8135 45.1884L60.7479 45.4805C59.246 45.1407 50.9109 43.7938 42.0872 42.3664C31.6005 40.6707 19.7163 38.7486 16.3012 38.0364L9.85846 36.6924C9.44722 36.606 8.97936 36.5077 8.59494 36.6179C7.76352 36.8563 7.64134 37.9351 7.62644 38.85C7.55492 43.3945 7.4536 57.0011 7.35824 70.1608C7.2599 83.4248 7.15858 97.1417 7.08706 101.799V101.802Z" fill="white"/>
<path d="M62.861 85.6895C62.861 86.4255 62.861 87.1497 62.8551 87.8619C62.8521 88.4549 62.8372 89.0986 62.5958 89.632C62.2293 90.4396 61.5111 90.6601 60.8853 90.8061C58.1437 91.4438 24.2015 100.688 19.058 102.282C16.3641 103.116 13.5599 103.942 10.6544 104.916C7.9754 105.813 6.9026 104.186 6.93836 101.799C6.95326 100.89 6.96518 99.9815 6.98008 99.0726L62.861 85.6895Z" fill="#292E54"/>
<path d="M10.8125 92.0013C10.9317 84.7808 11.1284 50.0936 11.2446 42.9923C11.2565 42.2383 11.3757 41.3473 12.1833 41.1327C12.5409 41.0374 12.9551 41.1059 13.3515 41.1774C15.2885 41.5201 17.1748 41.8539 19.0135 42.1787C24.6099 43.1681 56.4154 47.2686 59.4908 47.8586C60.1136 47.9778 60.8348 48.1834 61.1536 48.8807C61.3324 49.2741 61.3354 49.7271 61.3324 50.1532C61.2997 54.4951 61.4576 77.9 61.4248 82.2865C61.4218 82.7663 61.4069 83.2848 61.1775 83.714C60.8318 84.3606 60.1553 84.5215 59.5683 84.6258C56.9995 85.0788 26.0135 91.5961 21.4481 92.7076C19.0701 93.2857 16.6026 93.8519 14.0577 94.5314C11.7214 95.1542 10.7827 93.8579 10.8155 92.0013H10.8125Z" fill="#292E54"/>
<path d="M118.671 38.4563C115.548 42.1664 114.332 47.2502 114.752 52.0838C115.053 55.5495 116.198 59.0242 118.483 61.6496C121.633 65.2703 126.812 66.8944 131.53 66.0064C136.244 65.1183 140.389 61.8552 142.63 57.6147C144.871 53.3712 145.253 48.2485 143.968 43.6236C143.241 41.0101 141.966 38.495 139.975 36.6534C134.227 31.337 123.519 32.7049 118.674 38.4592L118.671 38.4563Z" fill="#BCBEC0"/>
<path d="M130.719 65.2344C130.621 65.2344 130.529 65.1748 130.493 65.0795C130.445 64.9543 130.505 64.8113 130.633 64.7636C135.419 62.9041 139.341 58.7023 140.866 53.8002C142.392 48.8981 141.549 43.2122 138.664 38.9657C137.699 37.5443 135.642 35.0917 132.722 34.6537C132.588 34.6328 132.498 34.5106 132.516 34.3765C132.537 34.2424 132.659 34.15 132.793 34.1709C135.094 34.5166 137.323 36.1228 139.066 38.6916C142.031 43.0602 142.902 48.904 141.331 53.9462C139.761 58.9883 135.729 63.3064 130.809 65.2195C130.779 65.2314 130.749 65.2374 130.719 65.2374V65.2344Z" fill="white"/>
<path d="M136.962 39.5703C136.867 39.5703 136.777 39.5137 136.739 39.4213C136.685 39.2961 136.744 39.1531 136.867 39.1024L137.498 38.8342C137.621 38.7806 137.767 38.8402 137.817 38.9624C137.871 39.0875 137.811 39.2306 137.689 39.2812L137.057 39.5494C137.028 39.5614 136.995 39.5703 136.962 39.5703Z" fill="white"/>
<path d="M140.499 46.339C140.484 46.339 140.466 46.339 140.451 46.333L139.086 46.0559C138.955 46.0291 138.869 45.9009 138.896 45.7698C138.922 45.6387 139.05 45.5523 139.182 45.5791L140.546 45.8562C140.678 45.8831 140.764 46.0112 140.737 46.1423C140.713 46.2585 140.612 46.339 140.499 46.339Z" fill="white"/>
<path d="M139.945 52.463C139.868 52.463 139.79 52.4242 139.743 52.3557C139.519 52.0219 139.147 51.7895 138.744 51.7388C138.61 51.7209 138.518 51.5988 138.533 51.4676C138.551 51.3335 138.67 51.2382 138.807 51.2561C139.343 51.3246 139.847 51.6345 140.148 52.0845C140.222 52.1977 140.193 52.3467 140.082 52.4212C140.041 52.4481 139.993 52.463 139.948 52.463H139.945Z" fill="white"/>
<path d="M136.554 59.2532C136.47 59.2532 136.39 59.2115 136.342 59.134L135.675 57.9926C135.606 57.8764 135.645 57.7274 135.761 57.6589C135.877 57.5903 136.026 57.6291 136.095 57.7453L136.762 58.8866C136.831 59.0029 136.792 59.1519 136.676 59.2204C136.637 59.2442 136.595 59.2532 136.554 59.2532Z" fill="white"/>
<path d="M131.919 62.6924C131.818 62.6924 131.723 62.6298 131.69 62.5285L131.201 61.0951C131.156 60.9669 131.225 60.8299 131.353 60.7852C131.481 60.7405 131.618 60.809 131.663 60.9371L132.152 62.3705C132.196 62.4987 132.128 62.6357 132 62.6804C131.973 62.6894 131.946 62.6924 131.922 62.6924H131.919Z" fill="white"/>
<path d="M126.225 64.6509C126.204 64.6509 126.183 64.6509 126.162 64.6419C126.031 64.6092 125.953 64.4751 125.989 64.3439L126.466 62.5351C126.502 62.404 126.636 62.3265 126.764 62.3622C126.895 62.395 126.973 62.5291 126.937 62.6602L126.46 64.4691C126.43 64.5794 126.332 64.6509 126.225 64.6509Z" fill="white"/>
<path d="M120.054 62.5441C119.979 62.5441 119.905 62.5113 119.857 62.4457C119.777 62.3385 119.798 62.1865 119.908 62.103L121.562 60.8634C121.669 60.7829 121.821 60.8037 121.905 60.911C121.985 61.0183 121.964 61.1703 121.854 61.2537L120.2 62.4934C120.155 62.5262 120.105 62.5411 120.054 62.5411V62.5441Z" fill="white"/>
<path d="M116.4 55.8541C116.302 55.8541 116.213 55.7945 116.174 55.6992C116.123 55.574 116.186 55.431 116.311 55.3833L117.589 54.8797C117.712 54.832 117.855 54.8916 117.905 55.0167C117.956 55.1419 117.893 55.2849 117.768 55.3326L116.49 55.8362C116.46 55.8482 116.43 55.8541 116.4 55.8541Z" fill="white"/>
<path d="M118.005 49.1237C117.96 49.1237 117.915 49.1118 117.873 49.085L116.422 48.1672C116.309 48.0956 116.273 47.9437 116.348 47.8304C116.419 47.7172 116.571 47.6814 116.684 47.7559L118.136 48.6738C118.249 48.7453 118.285 48.8973 118.21 49.0105C118.163 49.085 118.085 49.1237 118.005 49.1237Z" fill="white"/>
<path d="M119.78 43.236C119.255 43.236 118.737 42.9737 118.427 42.5536C118.346 42.4463 118.37 42.2913 118.477 42.2138C118.585 42.1334 118.74 42.1572 118.817 42.2645C119.041 42.5685 119.41 42.7622 119.789 42.7502C119.92 42.7443 120.033 42.8575 120.036 42.9916C120.036 43.1257 119.929 43.236 119.795 43.239H119.78V43.236Z" fill="white"/>
<path d="M124.076 40.2248C123.972 40.2248 123.873 40.1562 123.843 40.0519L123.37 38.4666C123.331 38.3384 123.405 38.2013 123.534 38.1626C123.665 38.1239 123.799 38.1984 123.837 38.3265L124.311 39.9119C124.35 40.04 124.276 40.1771 124.147 40.2158C124.124 40.2218 124.1 40.2248 124.079 40.2248H124.076Z" fill="white"/>
<path d="M128.206 37.2033C128.206 37.2033 128.191 37.2033 128.182 37.2033C128.048 37.1914 127.95 37.0722 127.962 36.9381L128.087 35.5613C128.099 35.4272 128.218 35.3289 128.352 35.3408C128.486 35.3527 128.585 35.4719 128.573 35.606L128.448 36.9828C128.436 37.108 128.331 37.2033 128.206 37.2033Z" fill="white"/>
<path d="M131.522 60.0458C131.492 60.0458 131.462 60.0398 131.432 60.0279C130.279 59.5749 129.066 59.3127 127.826 59.2501C127.692 59.2441 127.588 59.1279 127.594 58.9938C127.6 58.8597 127.719 58.7554 127.85 58.7644C129.015 58.824 130.157 59.0534 131.253 59.4438C131.176 58.4485 130.976 57.4651 130.66 56.5174C130.619 56.3893 130.687 56.2522 130.812 56.2075C130.941 56.1658 131.078 56.2343 131.122 56.3625C131.495 57.471 131.709 58.6243 131.766 59.7925C131.769 59.8759 131.73 59.9534 131.665 60.0011C131.623 60.0309 131.572 60.0458 131.522 60.0458Z" fill="white"/>
<path d="M132.596 39.9116C132.516 39.9116 132.438 39.8729 132.39 39.7984C131.875 38.9938 131.541 38.0878 131.413 37.1462L129.378 39.6553C129.291 39.7596 129.139 39.7745 129.035 39.6911C128.931 39.6077 128.916 39.4527 128.999 39.3484L131.416 36.3714C131.478 36.2939 131.586 36.2611 131.681 36.2939C131.776 36.3267 131.845 36.4131 131.848 36.5144C131.89 37.5872 132.22 38.6302 132.802 39.5332C132.873 39.6464 132.84 39.7984 132.727 39.8699C132.685 39.8967 132.641 39.9086 132.596 39.9086V39.9116Z" fill="white"/>
<path d="M131.299 59.8672C131.224 59.8672 131.153 59.8344 131.105 59.7689C129.803 58.0435 128.182 55.8979 127.976 53.4125C127.875 52.1818 128.125 50.9749 128.37 49.8067L130.876 37.7288C130.903 37.5977 131.037 37.5113 131.165 37.5381C131.296 37.5649 131.382 37.693 131.353 37.8271L128.846 49.9051C128.611 51.0375 128.367 52.2116 128.462 53.3708C128.653 55.7161 130.229 57.7991 131.493 59.4739C131.573 59.5811 131.552 59.7331 131.445 59.8166C131.4 59.8493 131.35 59.8672 131.299 59.8672Z" fill="white"/>
<path d="M69.8351 36.1674C70.2404 37.0793 70.5771 38.316 69.7934 38.9328C69.0186 39.5407 67.907 38.9477 67.1173 38.3607C65.3979 37.0793 63.6784 35.8008 61.9589 34.5194C57.6886 35.3717 53.1262 34.6684 49.3118 32.5676C47.0083 31.3011 44.8776 29.3849 44.2071 26.84C43.3667 23.6484 45.0534 20.2512 47.4493 17.9775C52.7507 12.9472 61.7414 12.4347 67.5822 16.8302C69.8887 18.5675 71.7631 21.1333 71.8972 24.0179C72.0433 27.1648 69.9811 29.1972 67.3468 30.3594C67.9011 32.3381 68.9947 34.2781 69.8351 36.1644V36.1674Z" fill="#FFDE91"/>
<path d="M49.1899 26.2701C48.9187 25.6979 48.9277 25.0304 49.0528 24.4105C49.178 23.7996 49.4223 23.1917 49.8813 22.7715C50.6531 22.0653 51.9613 22.0861 52.748 22.7745C53.5347 23.4629 53.7463 24.7056 53.2814 25.6413C52.605 27.0031 50.0094 27.9955 49.1899 26.2671V26.2701Z" fill="#AF93A2"/>
<path d="M55.1767 23.0921C55.7131 22.1206 56.9528 21.5842 58.0196 21.8911C59.0865 22.201 59.8523 23.3454 59.6974 24.445C59.5364 25.5863 57.8825 27.0137 56.7054 26.823C55.0903 26.5638 54.4675 24.3735 55.1767 23.0891V23.0921Z" fill="#AF93A2"/>
<path d="M62.253 25.6995C61.66 24.7489 61.809 23.4019 62.5957 22.6062C63.3825 21.8106 64.7294 21.6407 65.686 22.2218C69.1189 24.2989 64.5566 29.3977 62.253 25.7025V25.6995Z" fill="#AF93A2"/>
</svg>
