<svg width="14" height="14" viewBox="0 0 14 14" fill="none" xmlns="http://www.w3.org/2000/svg">
<path d="M12.0431 7.89075L11.813 7.75775C11.5391 7.59981 11.3755 7.31631 11.3755 7C11.3755 6.68369 11.5391 6.40019 11.813 6.24225L12.0431 6.10925C12.6714 5.74612 12.8862 4.94462 12.5235 4.31638L12.086 3.55862C11.7242 2.93169 10.9196 2.71644 10.2931 3.07825L10.063 3.21081C9.78913 3.36919 9.46144 3.36919 9.18801 3.21081C8.91413 3.05244 8.75051 2.76937 8.75051 2.45306V2.1875C8.75051 1.46387 8.16163 0.875 7.43801 0.875H6.56301C5.83938 0.875 5.25051 1.46387 5.25051 2.1875V2.4535C5.25051 2.76981 5.08688 3.05288 4.81301 3.21125C4.53913 3.36919 4.21188 3.36963 3.93801 3.21125L3.70788 3.07825C3.08138 2.71644 2.27682 2.93169 1.91457 3.55862L1.47707 4.31638C1.11438 4.94462 1.32919 5.74656 1.95744 6.10925L2.18801 6.24225C2.46188 6.40019 2.62551 6.68369 2.62551 7C2.62551 7.31631 2.46188 7.59981 2.18801 7.75775L1.95788 7.89075C1.32963 8.25344 1.11482 9.05538 1.47751 9.68363L1.91501 10.4414C2.27726 11.0683 3.08182 11.2836 3.70788 10.9218L3.93801 10.7892C4.21188 10.6304 4.53913 10.6312 4.81301 10.7892C5.08688 10.9476 5.25051 11.2306 5.25051 11.5469V11.8125C5.25051 12.5361 5.83938 13.125 6.56301 13.125H7.43801C8.16163 13.125 8.75051 12.5361 8.75051 11.8125V11.5465C8.75051 11.2302 8.91413 10.9471 9.18801 10.7887C9.46144 10.6308 9.78913 10.6304 10.063 10.7887L10.2931 10.9218C10.9196 11.2831 11.7242 11.0679 12.086 10.4414L12.5235 9.68363C12.8862 9.05538 12.6714 8.25344 12.0431 7.89075ZM7.00051 9.1875C5.79432 9.1875 4.81301 8.20619 4.81301 7C4.81301 5.79381 5.79432 4.8125 7.00051 4.8125C8.20669 4.8125 9.18801 5.79381 9.18801 7C9.18801 8.20619 8.20669 9.1875 7.00051 9.1875Z" fill="#404040"/>
</svg>
