<svg width="24" height="24" viewBox="0 0 24 24" fill="none" xmlns="http://www.w3.org/2000/svg">
<path d="M11.3119 4.3163L2.56687 19.4626C2.49731 19.5838 2.46078 19.7212 2.46094 19.861C2.4611 20.0008 2.49794 20.1381 2.56779 20.2591C2.63763 20.3802 2.73803 20.4809 2.85895 20.551C2.97988 20.6211 3.11709 20.6583 3.25687 20.6588H20.7469C20.8867 20.6583 21.0239 20.6211 21.1448 20.551C21.2657 20.4809 21.3661 20.3802 21.436 20.2591C21.5058 20.1381 21.5426 20.0008 21.5428 19.861C21.543 19.7212 21.5064 19.5838 21.4369 19.4626L12.6919 4.3163C12.6215 4.19569 12.5208 4.09562 12.3997 4.02607C12.2787 3.95652 12.1415 3.91992 12.0019 3.91992C11.8623 3.91992 11.7251 3.95652 11.604 4.02607C11.4829 4.09562 11.3822 4.19569 11.3119 4.3163Z" fill="#EFCC00"/>
<path d="M10.876 17.2495C10.876 17.0269 10.942 16.8094 11.0656 16.6244C11.1892 16.4394 11.3649 16.2952 11.5705 16.2101C11.776 16.1249 12.0022 16.1027 12.2205 16.1461C12.4387 16.1895 12.6391 16.2966 12.7965 16.454C12.9538 16.6113 13.061 16.8117 13.1044 17.03C13.1478 17.2482 13.1255 17.4744 13.0403 17.68C12.9552 17.8855 12.811 18.0612 12.626 18.1849C12.441 18.3085 12.2235 18.3745 12.001 18.3745C11.8515 18.3808 11.7024 18.3561 11.563 18.3018C11.4237 18.2475 11.2971 18.1649 11.1913 18.0591C11.0856 17.9533 11.0029 17.8268 10.9486 17.6874C10.8944 17.548 10.8696 17.3989 10.876 17.2495ZM11.2847 15.502L10.9997 9.87695H12.9722L12.6985 15.502H11.2847Z" fill="#353535"/>
</svg>
