<svg width="21" height="21" viewBox="0 0 21 21" fill="none" xmlns="http://www.w3.org/2000/svg">
<path d="M10.4986 18.8824C15.1205 18.8824 18.8804 15.1225 18.8804 10.5009C18.8804 5.87925 15.1205 2.11914 10.4986 2.11914C5.87701 2.11914 2.11719 5.87929 2.11719 10.5009C2.11719 15.1225 5.87701 18.8824 10.4986 18.8824ZM10.4986 3.44148C14.3913 3.44148 17.5584 6.60826 17.5584 10.5009C17.5584 14.3932 14.3913 17.5604 10.4986 17.5604C6.60627 17.5604 3.43953 14.3932 3.43953 10.5009C3.43949 6.60826 6.60622 3.44148 10.4986 3.44148Z" fill="#999999"/>
<path d="M7.05833 14.0079C7.20541 14.1524 7.39671 14.2241 7.58756 14.2241C7.78345 14.2241 7.97884 14.1486 8.12695 13.998L10.5003 11.5792L12.8742 13.998C13.0222 14.1486 13.2177 14.2241 13.4134 14.2241C13.6045 14.2241 13.7955 14.1524 13.9426 14.0079C14.2405 13.7157 14.2448 13.2371 13.9525 12.9394L11.559 10.5009L13.9525 8.06207C14.2448 7.76438 14.2405 7.28606 13.9426 6.99374C13.6452 6.70158 13.1668 6.70589 12.8742 7.00358L10.5003 9.42231L8.12691 7.00358C7.83426 6.70564 7.35594 6.70158 7.05825 6.99374C6.76056 7.28606 6.75601 7.76438 7.04857 8.06207L9.44187 10.5009L7.04857 12.9394C6.75609 13.2371 6.76064 13.7157 7.05833 14.0079Z" fill="#999999"/>
</svg>
