<svg width="360" height="208" viewBox="0 0 360 208" fill="none" xmlns="http://www.w3.org/2000/svg">
<g clip-path="url(#clip0_984_7498)">
<rect width="360" height="208" rx="5" fill="white"/>
<path d="M16 133C16 127.477 20.4772 123 26 123H334C339.523 123 344 127.477 344 133V161C344 166.523 339.523 171 334 171H26C20.4771 171 16 166.523 16 161V133Z" fill="#36AEE2"/>
<path d="M127.531 143.281C127.531 144.021 127.672 144.766 127.953 145.516C128.24 146.266 128.648 146.948 129.18 147.562C129.716 148.177 130.344 148.651 131.062 148.984L130.094 150.359C129.318 149.995 128.638 149.461 128.055 148.758C127.471 148.049 127.016 147.24 126.688 146.328C126.359 147.323 125.893 148.206 125.289 148.977C124.685 149.747 123.984 150.323 123.188 150.703L122.172 149.344C122.896 149 123.531 148.503 124.078 147.852C124.63 147.201 125.052 146.474 125.344 145.672C125.641 144.87 125.792 144.073 125.797 143.281V142.094H122.719V140.656H130.484V142.094H127.531V143.281ZM133.531 144.766H135.703V146.219H133.531V153.391H131.797V139.266H133.531V144.766ZM149.507 147.422H136.617V146.031H142.211V144.688H138.195V139.906H147.945V141.266H139.929V143.312H148.023V144.688H143.914V146.031H149.507V147.422ZM143.039 148.234C144.054 148.234 144.927 148.336 145.656 148.539C146.385 148.737 146.945 149.029 147.336 149.414C147.726 149.799 147.924 150.266 147.929 150.812C147.924 151.354 147.726 151.818 147.336 152.203C146.945 152.589 146.382 152.883 145.648 153.086C144.919 153.289 144.049 153.391 143.039 153.391C142.018 153.391 141.138 153.289 140.398 153.086C139.659 152.883 139.093 152.589 138.703 152.203C138.312 151.818 138.117 151.354 138.117 150.812C138.117 150.266 138.312 149.799 138.703 149.414C139.093 149.029 139.656 148.737 140.39 148.539C141.13 148.336 142.013 148.234 143.039 148.234ZM143.039 149.562C142.007 149.562 141.221 149.669 140.679 149.883C140.143 150.096 139.877 150.406 139.882 150.812C139.877 151.219 140.143 151.526 140.679 151.734C141.216 151.943 142.002 152.047 143.039 152.047C144.054 152.047 144.833 151.943 145.375 151.734C145.916 151.526 146.19 151.219 146.195 150.812C146.19 150.406 145.914 150.096 145.367 149.883C144.825 149.669 144.049 149.562 143.039 149.562ZM161.89 142.25H163.89V143.688H161.89V146.672H160.171V139.281H161.89V142.25ZM153.124 144.711C154.124 144.695 155.096 144.646 156.038 144.562C156.986 144.474 157.942 144.333 158.906 144.141L159.109 145.562C156.989 145.958 154.801 146.156 152.546 146.156H151.374V139.906H153.124V144.711ZM154.452 148.922H160.171V147.344H161.906V153.219H152.734V147.344H154.452V148.922ZM160.171 151.812V150.312H154.452V151.812H160.171ZM177.804 148.859H172.179V153.391H170.46V148.859H164.897V147.484H177.804V148.859ZM168.179 141.562H174.491V139.828H176.241V146.016H166.46V139.828H168.179V141.562ZM174.491 144.609V142.938H168.179V144.609H174.491ZM196.053 149.172H190.459V153.406H188.741V149.172H183.178V147.75H196.053V149.172ZM194.85 142.312H190.491C190.548 142.786 190.782 143.247 191.194 143.695C191.605 144.143 192.168 144.531 192.881 144.859C193.595 145.188 194.407 145.406 195.319 145.516L194.678 146.891C193.532 146.745 192.517 146.435 191.631 145.961C190.751 145.482 190.077 144.896 189.608 144.203C189.139 144.901 188.462 145.487 187.577 145.961C186.691 146.435 185.668 146.745 184.506 146.891L183.881 145.516C184.793 145.406 185.605 145.19 186.319 144.867C187.032 144.539 187.597 144.151 188.014 143.703C188.431 143.255 188.668 142.792 188.725 142.312H184.366V140.938H188.741V139.281H190.459V140.938H194.85V142.312ZM208.389 144.781H210.482V146.234H208.389V153.359H206.654V139.266H208.389V144.781ZM204.654 140.734C204.654 145.37 202.514 148.74 198.232 150.844L197.248 149.5C198.967 148.646 200.292 147.612 201.225 146.398C202.162 145.185 202.719 143.776 202.897 142.172H198.014V140.734H204.654ZM222.537 144.891H224.709V146.328H222.537V153.391H220.818V139.266H222.537V144.891ZM219.724 142.828H211.396V141.438H214.74V139.469H216.474V141.438H219.724V142.828ZM215.615 143.75C216.287 143.75 216.891 143.893 217.427 144.18C217.969 144.461 218.394 144.854 218.701 145.359C219.008 145.865 219.162 146.438 219.162 147.078C219.162 147.719 219.008 148.292 218.701 148.797C218.394 149.297 217.969 149.688 217.427 149.969C216.891 150.25 216.287 150.391 215.615 150.391C214.933 150.391 214.321 150.25 213.779 149.969C213.237 149.688 212.813 149.297 212.506 148.797C212.198 148.292 212.047 147.719 212.052 147.078C212.047 146.438 212.198 145.865 212.506 145.359C212.813 144.854 213.237 144.461 213.779 144.18C214.321 143.893 214.933 143.75 215.615 143.75ZM215.615 145.172C215.245 145.172 214.914 145.25 214.623 145.406C214.336 145.562 214.112 145.786 213.951 146.078C213.789 146.365 213.709 146.698 213.709 147.078C213.709 147.458 213.789 147.792 213.951 148.078C214.112 148.359 214.336 148.578 214.623 148.734C214.914 148.885 215.245 148.958 215.615 148.953C215.974 148.958 216.295 148.885 216.576 148.734C216.862 148.578 217.086 148.359 217.248 148.078C217.414 147.792 217.5 147.458 217.506 147.078C217.5 146.698 217.414 146.365 217.248 146.078C217.086 145.792 216.862 145.57 216.576 145.414C216.295 145.253 215.974 145.172 215.615 145.172ZM237.419 153.391H235.669V139.266H237.419V153.391ZM233.201 140.766C233.201 143.01 232.693 144.982 231.677 146.68C230.662 148.372 228.977 149.776 226.622 150.891L225.716 149.5C227.534 148.635 228.901 147.602 229.818 146.398C230.74 145.19 231.279 143.771 231.435 142.141H226.435V140.766H233.201Z" fill="white"/>
<g clip-path="url(#clip1_984_7498)">
<path d="M161.167 17.332C158.037 17.332 155.5 19.882 155.5 22.9987V62.6654C155.5 65.782 158.037 68.332 161.167 68.332H178.167H183.833H200.833C203.964 68.332 206.5 65.782 206.5 62.6654V22.9987C206.5 19.882 203.964 17.332 200.833 17.332H183.833H178.167H161.167Z" fill="#BDC3C7"/>
<path d="M161.167 14.5C158.037 14.5 155.5 17.037 155.5 20.1667V59.8333C155.5 62.9642 158.037 65.5 161.167 65.5H178.167H183.833H200.833C203.964 65.5 206.5 62.9642 206.5 59.8333V20.1667C206.5 17.037 203.964 14.5 200.833 14.5H183.833H178.167H161.167Z" fill="#ECF0F1"/>
<path d="M161.167 14.5C158.037 14.5 155.5 17.05 155.5 20.1667V28.6667H206.5V20.1667C206.5 17.05 203.964 14.5 200.833 14.5H183.833H178.167H161.167Z" fill="#E74C3C"/>
<path d="M168.25 21.582C168.25 22.1401 168.14 22.6928 167.926 23.2084C167.713 23.7241 167.4 24.1926 167.005 24.5872C166.611 24.9819 166.142 25.2949 165.626 25.5085C165.111 25.7221 164.558 25.832 164 25.832C163.442 25.832 162.889 25.7221 162.374 25.5085C161.858 25.2949 161.389 24.9819 160.995 24.5872C160.6 24.1926 160.287 23.7241 160.074 23.2084C159.86 22.6928 159.75 22.1401 159.75 21.582C159.75 21.0239 159.86 20.4713 160.074 19.9556C160.287 19.44 160.6 18.9715 160.995 18.5768C161.389 18.1822 161.858 17.8691 162.374 17.6555C162.889 17.442 163.442 17.332 164 17.332C164.558 17.332 165.111 17.442 165.626 17.6555C166.142 17.8691 166.611 18.1822 167.005 18.5768C167.4 18.9715 167.713 19.44 167.926 19.9556C168.14 20.4713 168.25 21.0239 168.25 21.582Z" fill="#C0392B"/>
<path d="M163.997 8.83203C162.433 8.83203 161.164 10.1005 161.164 11.6654V20.1654C161.164 21.7302 162.433 22.9987 163.997 22.9987C165.562 22.9987 166.831 21.7302 166.831 20.1654V11.6654C166.831 10.1005 165.562 8.83203 163.997 8.83203Z" fill="#BDC3C7"/>
<path d="M202.25 21.582C202.25 22.1401 202.14 22.6928 201.926 23.2084C201.713 23.7241 201.4 24.1926 201.005 24.5872C200.611 24.9819 200.142 25.2949 199.626 25.5085C199.111 25.7221 198.558 25.832 198 25.832C197.442 25.832 196.889 25.7221 196.374 25.5085C195.858 25.2949 195.389 24.9819 194.995 24.5872C194.6 24.1926 194.287 23.7241 194.074 23.2084C193.86 22.6928 193.75 22.1401 193.75 21.582C193.75 21.0239 193.86 20.4713 194.074 19.9556C194.287 19.44 194.6 18.9715 194.995 18.5768C195.389 18.1822 195.858 17.8691 196.374 17.6555C196.889 17.442 197.442 17.332 198 17.332C198.558 17.332 199.111 17.442 199.626 17.6555C200.142 17.8691 200.611 18.1822 201.005 18.5768C201.4 18.9715 201.713 19.44 201.926 19.9556C202.14 20.4713 202.25 21.0239 202.25 21.582Z" fill="#C0392B"/>
<path d="M197.997 8.83203C196.433 8.83203 195.164 9.96536 195.164 11.6654V20.1654C195.164 21.582 196.433 22.9987 197.997 22.9987C199.561 22.9987 200.831 21.582 200.831 20.1654V11.6654C200.831 9.96536 199.561 8.83203 197.997 8.83203Z" fill="#BDC3C7"/>
<path d="M206.5 28.6641H155.5V31.4974H206.5V28.6641Z" fill="#C0392B"/>
<path d="M169.664 37.1641V39.9974H175.331C176.895 39.9974 178.164 41.1307 178.164 42.8307C178.164 44.2474 176.895 45.6641 175.331 45.6641H172.497V48.4974H175.331C176.895 48.4974 178.164 49.6307 178.164 51.3307C178.164 52.7474 176.895 54.1641 175.331 54.1641H169.664V56.9974H175.331C178.462 56.9974 180.997 54.4474 180.997 51.3307C180.997 49.6307 180.238 47.9307 179.048 47.0807C180.238 45.9474 180.997 44.5307 180.997 42.8307C180.997 39.7141 178.462 37.1641 175.331 37.1641H169.664Z" fill="#95A5A6"/>
<path d="M183.836 37.1641V39.9974H186.669V54.1641H183.836V56.9974H186.669H189.503H192.336V54.1641H189.503V37.1641H186.669H183.836Z" fill="#95A5A6"/>
</g>
<path d="M102.297 90.125H89.5156V88.9062H102.297V90.125ZM100.812 87.6875H91.1094V82.8281H100.719V84.0469H92.5781V86.4844H100.812V87.6875ZM95.8906 91.2188C96.8958 91.2188 97.7578 91.3177 98.4766 91.5156C99.2005 91.7135 99.7552 92.0052 100.141 92.3906C100.526 92.7708 100.719 93.2292 100.719 93.7656C100.719 94.3021 100.526 94.7604 100.141 95.1406C99.7552 95.5208 99.2005 95.8099 98.4766 96.0078C97.7526 96.2057 96.8906 96.3021 95.8906 96.2969C94.8854 96.3021 94.0182 96.2057 93.2891 96.0078C92.5599 95.8099 92 95.5208 91.6094 95.1406C91.224 94.7604 91.0312 94.3021 91.0312 93.7656C91.0312 93.2292 91.224 92.7708 91.6094 92.3906C92 92.0052 92.5573 91.7135 93.2812 91.5156C94.0104 91.3177 94.8802 91.2188 95.8906 91.2188ZM95.8906 92.3594C94.8177 92.3698 93.9896 92.4974 93.4062 92.7422C92.8229 92.9818 92.5312 93.3229 92.5312 93.7656C92.5312 94.2083 92.8229 94.5521 93.4062 94.7969C93.9896 95.0365 94.8177 95.1562 95.8906 95.1562C96.9479 95.1562 97.7682 95.0365 98.3516 94.7969C98.9401 94.5521 99.2344 94.2083 99.2344 93.7656C99.2344 93.3229 98.9427 92.9818 98.3594 92.7422C97.776 92.4974 96.9531 92.3698 95.8906 92.3594ZM116.461 91.1719H103.648V89.9688H109.32V88.6406H105.289V85.0781H113.367V83.8281H105.257V82.6562H114.851V86.1719H106.757V87.4844H115.132V88.6406H110.789V89.9688H116.461V91.1719ZM114.929 96.2188H113.429V93.3438H105.086V92.1562H114.929V96.2188ZM125.968 88.0156H123.234V89.7812C124.562 89.724 125.77 89.6354 126.859 89.5156L126.968 90.6094C124.598 90.9323 121.635 91.0938 118.077 91.0938L117.874 89.9062C119.354 89.8958 120.65 89.875 121.765 89.8438V88.0156H119.124V83.2188H125.843V84.4219H120.609V86.8125H125.968V88.0156ZM129.421 92.8281H127.937V82.3281H129.421V92.8281ZM129.859 96.0312H120.187V92.0781H121.671V94.8281H129.859V96.0312ZM141.061 86.4531C141.061 87.1875 141.212 87.9323 141.514 88.6875C141.816 89.4427 142.238 90.125 142.78 90.7344C143.327 91.3438 143.947 91.8125 144.639 92.1406L143.796 93.2969C143.025 92.9219 142.337 92.3672 141.733 91.6328C141.134 90.8984 140.673 90.0651 140.35 89.1328C140.027 90.1432 139.551 91.0521 138.921 91.8594C138.296 92.6615 137.587 93.2604 136.796 93.6562L135.921 92.4844C136.613 92.151 137.238 91.6615 137.796 91.0156C138.358 90.3698 138.798 89.6458 139.116 88.8438C139.434 88.0365 139.592 87.2396 139.592 86.4531V84.9688H136.436V83.7344H144.108V84.9688H141.061V86.4531ZM147.092 87.875H149.342V89.125H147.092V96.3281H145.608V82.3281H147.092V87.875ZM163.116 90.3281H150.334V89.1406H156.006V87.6562H151.928V82.9688H161.537V84.1406H153.397V86.4688H161.631V87.6562H157.444V89.1406H163.116V90.3281ZM156.709 91.2344C157.715 91.2344 158.577 91.3333 159.295 91.5312C160.019 91.7292 160.574 92.0208 160.959 92.4062C161.345 92.7865 161.537 93.2448 161.537 93.7812C161.537 94.3177 161.345 94.776 160.959 95.1562C160.579 95.5365 160.027 95.8255 159.303 96.0234C158.579 96.2214 157.715 96.3229 156.709 96.3281C155.699 96.3229 154.829 96.2214 154.1 96.0234C153.376 95.8255 152.819 95.5365 152.428 95.1562C152.043 94.776 151.85 94.3177 151.85 93.7812C151.85 93.2448 152.043 92.7865 152.428 92.4062C152.819 92.0208 153.376 91.7292 154.1 91.5312C154.829 91.3333 155.699 91.2344 156.709 91.2344ZM156.709 92.3906C155.636 92.3906 154.808 92.513 154.225 92.7578C153.642 92.9974 153.35 93.3385 153.35 93.7812C153.35 94.2292 153.642 94.5729 154.225 94.8125C154.814 95.0469 155.642 95.1615 156.709 95.1562C157.767 95.1667 158.587 95.0521 159.17 94.8125C159.759 94.5677 160.053 94.224 160.053 93.7812C160.053 93.3385 159.759 92.9974 159.17 92.7578C158.587 92.513 157.767 92.3906 156.709 92.3906ZM175.482 85.375H177.529V86.6094H175.482V89.6406H173.998V82.3438H175.482V85.375ZM166.607 87.8125C167.654 87.8021 168.67 87.7526 169.654 87.6641C170.639 87.5755 171.634 87.4271 172.639 87.2188L172.826 88.4531C170.691 88.849 168.503 89.0469 166.264 89.0469H165.123V82.9688H166.607V87.8125ZM167.951 92.0625H173.998V90.3438H175.482V96.1562H166.498V90.3438H167.951V92.0625ZM173.998 94.9531V93.2656H167.951V94.9531H173.998ZM191.427 91.7344H185.709V96.3281H184.256V91.7344H178.615V90.5625H191.427V91.7344ZM181.677 84.7188H188.334V82.8906H189.818V88.9688H180.209V82.8906H181.677V84.7188ZM188.334 87.7812V85.9062H181.677V87.7812H188.334ZM203.685 87.9062H205.857V89.1406H203.685V96.3125H202.201V82.3281H203.685V87.9062ZM200.029 83.7969C200.018 85.9323 199.5 87.849 198.474 89.5469C197.448 91.2448 195.831 92.6406 193.622 93.7344L192.794 92.5781C194.544 91.7031 195.896 90.6354 196.849 89.375C197.807 88.1146 198.362 86.6667 198.513 85.0312H193.497V83.7969H200.029ZM214.137 92.1562H216.325V90.5312H217.7V96.1562H212.747V90.5312H214.137V92.1562ZM216.325 95V93.2812H214.137V95H216.325ZM221.762 91.5781C221.762 92.0833 221.856 92.5703 222.044 93.0391C222.231 93.5078 222.515 93.9271 222.895 94.2969C223.281 94.6615 223.752 94.9427 224.309 95.1406L223.544 96.2656C222.929 96.0312 222.411 95.6979 221.989 95.2656C221.572 94.8385 221.249 94.3359 221.02 93.7578C220.781 94.3203 220.45 94.8177 220.028 95.25C219.611 95.6823 219.111 96.0208 218.528 96.2656L217.778 95.1406C218.32 94.9167 218.778 94.6172 219.153 94.2422C219.533 93.862 219.817 93.4427 220.005 92.9844C220.197 92.5208 220.294 92.0521 220.294 91.5781V90.4375H221.762V91.5781ZM215.028 82.9219C215.637 82.9219 216.195 83.0312 216.7 83.25C217.205 83.4635 217.622 83.7682 217.95 84.1641C218.283 84.5599 218.502 85.0156 218.606 85.5312H221.341V82.3281H222.825V89.75H221.341V86.75H218.614C218.515 87.2812 218.299 87.7474 217.966 88.1484C217.637 88.5495 217.218 88.8594 216.708 89.0781C216.203 89.2969 215.643 89.4062 215.028 89.4062C214.32 89.4062 213.687 89.2708 213.13 89C212.572 88.724 212.137 88.3411 211.825 87.8516C211.512 87.3568 211.356 86.7917 211.356 86.1562C211.356 85.5312 211.512 84.974 211.825 84.4844C212.137 83.9896 212.572 83.6068 213.13 83.3359C213.687 83.0599 214.32 82.9219 215.028 82.9219ZM215.028 84.1562C214.591 84.1562 214.2 84.2422 213.856 84.4141C213.518 84.5807 213.252 84.8151 213.059 85.1172C212.872 85.4193 212.778 85.7656 212.778 86.1562C212.778 86.5521 212.872 86.9036 213.059 87.2109C213.252 87.5182 213.518 87.7604 213.856 87.9375C214.2 88.1094 214.591 88.1979 215.028 88.2031C215.455 88.1979 215.835 88.1094 216.169 87.9375C216.507 87.7604 216.77 87.5182 216.958 87.2109C217.151 86.9036 217.247 86.5521 217.247 86.1562C217.247 85.7656 217.151 85.4193 216.958 85.1172C216.77 84.8151 216.507 84.5807 216.169 84.4141C215.835 84.2422 215.455 84.1562 215.028 84.1562ZM228.348 92.2031H234.926V90.7188H236.411V96.1562H226.879V90.7188H228.348V92.2031ZM234.926 94.9688V93.3594H228.348V94.9688H234.926ZM238.067 89.8438H225.301V88.6094H238.067V89.8438ZM232.442 83.0781C232.442 83.6042 232.663 84.1172 233.106 84.6172C233.554 85.112 234.153 85.5365 234.903 85.8906C235.658 86.2396 236.478 86.4688 237.364 86.5781L236.833 87.75C235.687 87.5885 234.653 87.2526 233.731 86.7422C232.814 86.2318 232.132 85.6094 231.684 84.875C231.236 85.6146 230.551 86.2396 229.629 86.75C228.713 87.2552 227.687 87.5885 226.551 87.75L225.989 86.5781C226.885 86.4635 227.71 86.2344 228.465 85.8906C229.221 85.5469 229.819 85.1276 230.262 84.6328C230.705 84.138 230.926 83.6198 230.926 83.0781V82.4844H232.442V83.0781ZM251.074 96.3281H249.59V82.3281H251.074V96.3281ZM241.777 91.4844C244.069 91.4688 246.215 91.2552 248.215 90.8438L248.418 92.0938C247.231 92.3333 246.069 92.5052 244.934 92.6094C243.798 92.7135 242.647 92.7656 241.481 92.7656H240.309V83.6875H241.777V91.4844ZM264.504 87.75H266.754V88.9688H264.504V96.3594H263.019V82.3281H264.504V87.75ZM260.738 84.875H255.676V91.6406C256.915 91.6354 258.004 91.599 258.941 91.5312C259.884 91.4635 260.832 91.3438 261.785 91.1719L261.973 92.4219C261.009 92.5938 260.061 92.7135 259.129 92.7812C258.202 92.8438 257.129 92.875 255.91 92.875H255.316H254.191V83.6719H260.738V84.875ZM269.339 95.1094C269.141 95.1094 268.954 95.0599 268.777 94.9609C268.605 94.862 268.47 94.7266 268.371 94.5547C268.272 94.3828 268.225 94.1979 268.23 94C268.225 93.8021 268.272 93.6172 268.371 93.4453C268.47 93.2734 268.605 93.138 268.777 93.0391C268.954 92.9401 269.141 92.8906 269.339 92.8906C269.532 92.8906 269.714 92.9401 269.886 93.0391C270.058 93.138 270.194 93.2734 270.292 93.4453C270.397 93.6172 270.449 93.8021 270.449 94C270.449 94.1979 270.397 94.3828 270.292 94.5547C270.194 94.7266 270.058 94.862 269.886 94.9609C269.714 95.0599 269.532 95.1094 269.339 95.1094Z" fill="#333333"/>
<rect x="70.5" y="118.5" width="219" height="57" stroke="#EC4E39" stroke-width="3"/>
</g>
<defs>
<clipPath id="clip0_984_7498">
<rect width="360" height="208" rx="5" fill="white"/>
</clipPath>
<clipPath id="clip1_984_7498">
<rect width="68" height="68" fill="white" transform="translate(147 -2)"/>
</clipPath>
</defs>
</svg>
